<svg xmlns="http://www.w3.org/2000/svg" xmlns:xlink="http://www.w3.org/1999/xlink" width="1920" zoomAndPan="magnify" viewBox="0 0 1440 809.999993" height="1080" preserveAspectRatio="xMidYMid meet" version="1.0"><defs><clipPath id="6eee4d093e"><path d="M 1114.125 0 L 1384.875 0 L 1384.875 810 L 1114.125 810 Z M 1114.125 0 " clip-rule="nonzero"/></clipPath></defs><g clip-path="url(#6eee4d093e)"><path fill="#ffffff" d="M 1384.035156 63.097656 C 1383.617188 56.199219 1381.597656 49.332031 1378.324219 43.265625 C 1375.054688 37.199219 1369.820312 32.144531 1363.960938 28.546875 C 1358.433594 25.125 1352.007812 22.777344 1345.585938 21.796875 C 1344.871094 21.675781 1344.128906 21.589844 1343.414062 21.527344 C 1343.386719 20.132812 1343.386719 18.734375 1343.355469 17.335938 C 1343.355469 16.414062 1343.328125 15.460938 1343.328125 14.539062 C 1343.328125 13.707031 1343.058594 12.429688 1343.355469 11.6875 C 1343.625 10.972656 1344.457031 10.199219 1344.902344 9.605469 C 1345.46875 8.859375 1346.003906 8.117188 1346.566406 7.375 C 1347.726562 5.828125 1348.886719 4.253906 1350.046875 2.707031 C 1350.847656 1.636719 1349.75 0.148438 1348.589844 0.148438 C 1322.691406 0.117188 1296.761719 0.117188 1270.859375 0.0898438 C 1244.960938 0.0898438 1219.03125 0.0585938 1193.132812 0.03125 C 1178.472656 0.03125 1163.839844 0 1149.210938 0 C 1148.050781 0 1146.953125 1.488281 1147.753906 2.558594 C 1148.945312 4.132812 1150.132812 5.710938 1151.324219 7.285156 C 1151.859375 8 1152.394531 8.710938 1152.957031 9.425781 C 1153.433594 10.082031 1154.328125 10.882812 1154.625 11.625 C 1154.890625 12.28125 1154.683594 13.441406 1154.683594 14.152344 L 1154.683594 21.738281 C 1153.820312 21.824219 1152.957031 21.945312 1152.097656 22.09375 C 1139.191406 24.414062 1126.375 32.023438 1120.160156 43.769531 C 1116.859375 50.015625 1114.867188 57.0625 1114.570312 64.140625 C 1114.242188 72.40625 1116.53125 80.554688 1121.023438 87.511719 C 1125.394531 94.261719 1131.546875 99.675781 1139.070312 102.675781 C 1146.058594 105.472656 1154.089844 106.246094 1161.402344 104.519531 C 1169.757812 102.558594 1177.105469 96.910156 1181.683594 89.59375 L 1181.683594 127.238281 C 1181.535156 127.625 1181.5625 128.101562 1181.921875 128.578125 C 1184.894531 132.710938 1187.898438 136.84375 1190.871094 140.945312 C 1192.328125 142.96875 1193.816406 144.992188 1195.273438 147.042969 C 1195.421875 147.25 1195.539062 147.429688 1195.6875 147.609375 C 1194.796875 225.011719 1193.90625 302.382812 1193.011719 379.785156 C 1192.121094 456.949219 1191.226562 534.113281 1190.367188 611.304688 C 1189.859375 654.691406 1189.355469 698.074219 1188.878906 741.460938 L 1182.84375 741.460938 C 1181.890625 741.460938 1181.175781 742.230469 1181.148438 743.152344 C 1180.878906 749.964844 1176.09375 755.554688 1169.550781 757.25 C 1168.925781 757.398438 1168.570312 757.8125 1168.421875 758.289062 C 1168.363281 758.46875 1168.300781 758.675781 1168.300781 758.882812 L 1168.300781 765.722656 C 1167.855469 766.050781 1167.410156 766.46875 1166.992188 766.792969 C 1166.28125 767.328125 1165.535156 767.894531 1164.824219 768.429688 C 1163.722656 769.261719 1161.464844 770.332031 1161.195312 771.789062 C 1160.867188 773.484375 1161.164062 775.507812 1161.164062 777.203125 L 1161.164062 781.214844 C 1158.339844 781.660156 1155.933594 783.59375 1155.277344 786.539062 C 1154.386719 790.523438 1157.03125 794.089844 1160.777344 794.925781 L 1160.777344 808.066406 C 1160.777344 808.988281 1161.550781 809.761719 1162.472656 809.761719 L 1314.035156 809.761719 C 1321.023438 809.761719 1328.070312 810 1335.058594 809.761719 C 1335.148438 809.761719 1335.269531 809.761719 1335.355469 809.761719 C 1335.890625 809.761719 1336.277344 809.554688 1336.546875 809.257812 C 1336.84375 808.988281 1337.050781 808.601562 1337.050781 808.066406 L 1337.050781 794.863281 C 1339.492188 794.269531 1341.511719 792.515625 1342.226562 789.988281 C 1343.089844 786.984375 1341.78125 783.714844 1339.132812 782.078125 C 1338.71875 781.839844 1338.300781 781.632812 1337.882812 781.484375 C 1337.882812 778.539062 1337.945312 775.625 1337.882812 772.679688 C 1337.855469 770.957031 1336.785156 770.480469 1335.476562 769.5 C 1334.046875 768.460938 1332.652344 767.417969 1331.222656 766.378906 C 1331.015625 766.230469 1330.808594 766.050781 1330.597656 765.871094 L 1330.597656 759.539062 C 1331.015625 758.675781 1330.777344 757.488281 1329.589844 757.1875 C 1323.078125 755.496094 1318.289062 749.902344 1317.992188 743.09375 C 1317.960938 742.171875 1317.25 741.398438 1316.296875 741.398438 L 1311.421875 741.398438 C 1310.4375 663.996094 1309.457031 586.566406 1308.445312 509.164062 C 1307.464844 432.089844 1306.484375 354.984375 1305.503906 277.910156 C 1304.9375 234.644531 1304.402344 191.378906 1303.835938 148.113281 C 1304.371094 147.460938 1304.789062 146.625 1305.207031 146.0625 C 1306.066406 144.871094 1306.929688 143.652344 1307.761719 142.464844 C 1311.003906 137.914062 1314.273438 133.363281 1317.515625 128.816406 C 1317.574219 128.726562 1317.632812 128.636719 1317.695312 128.546875 C 1317.695312 128.519531 1317.722656 128.488281 1317.753906 128.488281 C 1317.871094 128.28125 1317.933594 128.011719 1317.933594 127.714844 L 1317.933594 90.753906 C 1319.390625 92.804688 1321.023438 94.738281 1322.839844 96.460938 C 1332.800781 106.007812 1347.933594 107.40625 1360.363281 102.140625 C 1375.53125 95.75 1385.015625 79.335938 1384.035156 63.097656 Z M 1154.5625 6.035156 C 1153.910156 5.175781 1153.257812 4.28125 1152.601562 3.417969 C 1177.371094 3.417969 1202.171875 3.449219 1226.941406 3.480469 C 1252.839844 3.480469 1278.769531 3.507812 1304.671875 3.539062 C 1318.199219 3.539062 1331.730469 3.566406 1345.230469 3.566406 C 1344.632812 4.339844 1344.070312 5.144531 1343.476562 5.917969 C 1342.851562 6.71875 1342.253906 7.554688 1341.632812 8.355469 C 1341.363281 8.710938 1341.007812 9.097656 1340.679688 9.515625 C 1316.863281 9.515625 1293.042969 9.515625 1269.226562 9.515625 C 1245.199219 9.515625 1221.171875 9.515625 1197.144531 9.515625 C 1183.855469 9.515625 1170.53125 9.515625 1157.242188 9.515625 C 1156.941406 9.128906 1156.585938 8.773438 1156.320312 8.414062 C 1155.753906 7.613281 1155.160156 6.808594 1154.5625 6.035156 Z M 1211.953125 30.121094 C 1221.054688 30.210938 1230.152344 28.546875 1238.777344 25.660156 C 1242.195312 24.53125 1245.527344 23.195312 1248.796875 21.707031 C 1266.609375 29.410156 1286.621094 31.015625 1305.414062 25.871094 C 1309.308594 24.800781 1313.113281 23.433594 1316.832031 21.855469 C 1317.128906 21.738281 1317.335938 21.558594 1317.484375 21.351562 C 1323.9375 21.351562 1330.421875 21.351562 1336.875 21.351562 C 1329.171875 21.648438 1321.558594 23.609375 1314.066406 25.601562 C 1309.308594 26.851562 1304.609375 28.367188 1300.0625 30.242188 C 1296.523438 31.667969 1293.042969 33.304688 1289.503906 34.730469 C 1280.316406 38.449219 1270.535156 40.617188 1260.691406 41.601562 C 1243.027344 43.324219 1224.800781 41.453125 1208.355469 34.554688 C 1204.816406 33.066406 1201.339844 31.460938 1197.769531 30.0625 C 1193.101562 28.25 1188.34375 26.792969 1183.496094 25.542969 C 1175.140625 23.371094 1166.636719 21.289062 1158.042969 21.589844 L 1158.042969 21.378906 C 1165.449219 21.378906 1172.820312 21.378906 1180.226562 21.378906 C 1180.316406 21.796875 1180.554688 22.152344 1181.058594 22.421875 C 1190.605469 27.355469 1201.160156 30.003906 1211.953125 30.121094 Z M 1186.707031 21.351562 C 1200.742188 21.351562 1214.75 21.351562 1228.785156 21.351562 L 1240.917969 21.351562 C 1233.394531 24.144531 1225.511719 26.046875 1217.515625 26.582031 C 1206.929688 27.296875 1196.371094 25.542969 1186.707031 21.351562 Z M 1257.242188 21.351562 C 1271.78125 21.351562 1286.324219 21.351562 1300.863281 21.351562 L 1308.683594 21.351562 C 1293.875 26.226562 1277.789062 26.851562 1262.652344 22.957031 C 1260.839844 22.480469 1259.027344 21.945312 1257.242188 21.351562 Z M 1269.3125 17.960938 C 1245.289062 17.960938 1221.261719 17.960938 1197.234375 17.960938 C 1184.179688 17.960938 1171.097656 17.960938 1158.042969 17.960938 L 1158.042969 13.917969 C 1158.042969 13.589844 1158.074219 13.230469 1158.101562 12.875 C 1181.652344 12.875 1205.175781 12.875 1228.726562 12.875 C 1252.75 12.875 1276.777344 12.875 1300.804688 12.875 C 1313.859375 12.875 1326.882812 12.875 1339.9375 12.875 C 1339.9375 13.054688 1339.964844 13.261719 1339.964844 13.410156 C 1339.964844 14.539062 1339.996094 15.640625 1339.996094 16.769531 C 1339.996094 17.15625 1339.996094 17.574219 1339.996094 17.960938 C 1316.445312 17.960938 1292.894531 17.960938 1269.3125 17.960938 Z M 1194.914062 509.195312 C 1195.808594 432.03125 1196.699219 354.867188 1197.5625 277.671875 C 1198.066406 234.703125 1198.542969 191.765625 1199.046875 148.796875 C 1200 148.796875 1200.953125 148.769531 1201.875 148.796875 C 1207.730469 148.828125 1213.621094 148.855469 1219.476562 148.855469 C 1218.734375 225.933594 1217.960938 303.035156 1217.21875 380.109375 C 1216.472656 457.246094 1215.699219 534.410156 1214.957031 611.542969 C 1214.542969 654.839844 1214.125 698.132812 1213.679688 741.429688 L 1192.238281 741.429688 C 1193.132812 664.027344 1194.023438 586.625 1194.914062 509.195312 Z M 1221.589844 278.058594 C 1222.003906 235 1222.421875 191.945312 1222.835938 148.886719 C 1226.078125 148.886719 1229.320312 148.917969 1232.5625 148.917969 C 1238.152344 148.945312 1243.769531 148.976562 1249.363281 148.976562 C 1249.300781 225.933594 1249.214844 302.886719 1249.152344 379.8125 C 1249.09375 456.949219 1249.003906 534.082031 1248.945312 611.21875 C 1248.914062 654.632812 1248.855469 698.015625 1248.828125 741.429688 L 1217.070312 741.429688 C 1217.8125 664.117188 1218.585938 586.804688 1219.328125 509.460938 C 1220.070312 432.355469 1220.84375 355.222656 1221.589844 278.058594 Z M 1333.664062 806.34375 L 1169.519531 806.34375 C 1167.765625 806.34375 1165.953125 806.195312 1164.167969 806.253906 L 1164.167969 795.222656 L 1328.308594 795.222656 C 1330.0625 795.222656 1331.878906 795.371094 1333.664062 795.308594 Z M 1338.539062 786.152344 C 1340.085938 788.589844 1338.242188 791.59375 1335.476562 791.710938 L 1165.953125 791.710938 C 1163.574219 791.710938 1160.125 792.277344 1158.847656 789.71875 C 1157.539062 787.042969 1159.648438 784.574219 1162.296875 784.488281 C 1162.355469 784.488281 1162.382812 784.488281 1162.445312 784.488281 C 1162.769531 784.488281 1163.097656 784.488281 1163.425781 784.488281 C 1163.960938 784.488281 1164.496094 784.488281 1165 784.488281 L 1314.957031 784.488281 C 1321.769531 784.488281 1328.605469 784.25 1335.386719 784.488281 C 1336.695312 784.488281 1337.824219 785.023438 1338.539062 786.152344 Z M 1329.261719 769.144531 C 1329.945312 769.648438 1330.597656 770.125 1331.285156 770.628906 C 1332.355469 771.402344 1333.394531 772.207031 1334.464844 772.980469 L 1334.464844 781.066406 L 1185.847656 781.066406 C 1178.738281 781.066406 1171.664062 781.007812 1164.554688 781.066406 L 1164.554688 772.800781 C 1165.359375 772.207031 1166.160156 771.582031 1166.964844 770.988281 C 1167.46875 770.601562 1167.976562 770.214844 1168.480469 769.855469 C 1168.984375 769.46875 1169.699219 768.726562 1170.292969 768.488281 C 1171.246094 768.132812 1172.96875 768.429688 1174.011719 768.429688 C 1175.527344 768.429688 1177.015625 768.429688 1178.5 768.429688 C 1184.210938 768.429688 1189.949219 768.429688 1195.660156 768.429688 C 1207.105469 768.429688 1218.527344 768.460938 1229.972656 768.460938 C 1252.839844 768.488281 1275.738281 768.488281 1298.605469 768.519531 C 1305.085938 768.519531 1311.539062 768.519531 1318.019531 768.546875 C 1321.203125 768.546875 1324.382812 768.546875 1327.597656 768.546875 C 1328.398438 768.546875 1328.636719 768.695312 1329.261719 769.144531 Z M 1322.390625 760.550781 C 1323.9375 760.550781 1325.605469 760.699219 1327.179688 760.640625 L 1327.179688 764.832031 L 1176.480469 764.832031 C 1174.933594 764.832031 1173.269531 764.683594 1171.691406 764.742188 L 1171.691406 760.578125 L 1322.390625 760.578125 Z M 1314.75 744.820312 C 1315.40625 749.785156 1318.019531 754.1875 1321.855469 757.160156 L 1189.472656 757.160156 C 1185.460938 757.160156 1181.414062 757.070312 1177.371094 757.070312 C 1181.148438 754.097656 1183.707031 749.753906 1184.359375 744.847656 Z M 1252.246094 741.460938 C 1252.304688 664.027344 1252.394531 586.625 1252.453125 509.195312 C 1252.511719 432.058594 1252.601562 354.925781 1252.664062 277.789062 C 1252.691406 234.882812 1252.75 191.945312 1252.78125 149.003906 C 1261.492188 149.035156 1270.234375 149.066406 1278.949219 149.125 C 1279.632812 226.082031 1280.316406 303.035156 1280.96875 379.992188 C 1281.65625 457.125 1282.339844 534.261719 1282.992188 611.394531 C 1283.378906 654.75 1283.765625 698.105469 1284.121094 741.488281 L 1252.246094 741.488281 Z M 1306.363281 611.1875 C 1306.929688 654.601562 1307.464844 698.015625 1308.03125 741.429688 L 1287.542969 741.429688 C 1286.859375 664.058594 1286.175781 586.683594 1285.492188 509.28125 C 1284.804688 432.148438 1284.121094 355.015625 1283.46875 277.878906 C 1283.082031 234.941406 1282.726562 192.003906 1282.339844 149.066406 C 1286.324219 149.09375 1290.308594 149.09375 1294.261719 149.125 C 1295.777344 149.125 1297.265625 149.125 1298.78125 149.152344 C 1299.289062 149.152344 1299.882812 149.214844 1300.507812 149.242188 C 1301.488281 226.140625 1302.46875 303.007812 1303.449219 379.902344 C 1304.402344 457.039062 1305.382812 534.113281 1306.363281 611.1875 Z M 1301.28125 145.792969 C 1284.597656 145.734375 1267.945312 145.675781 1251.265625 145.585938 L 1250.96875 145.585938 C 1250.96875 145.585938 1250.96875 145.585938 1250.9375 145.585938 L 1250.878906 145.585938 C 1240.738281 145.554688 1230.570312 145.496094 1220.429688 145.46875 C 1213.023438 145.4375 1205.621094 145.40625 1198.1875 145.378906 C 1194.351562 140.054688 1190.484375 134.730469 1186.648438 129.378906 L 1299.941406 129.378906 C 1304.253906 129.378906 1308.59375 129.527344 1312.9375 129.46875 C 1309.042969 134.941406 1305.175781 140.382812 1301.28125 145.792969 Z M 1314.570312 126.019531 L 1188.789062 126.019531 C 1187.601562 126.019531 1186.320312 125.902344 1185.074219 125.929688 L 1185.074219 91.167969 L 1187.363281 91.167969 L 1187.363281 113.859375 C 1187.363281 114.453125 1187.691406 115.019531 1188.195312 115.316406 C 1191.199219 116.980469 1194.675781 117.039062 1197.800781 115.582031 C 1198.335938 115.34375 1198.632812 114.660156 1198.632812 114.125 L 1198.632812 91.167969 L 1202.855469 91.167969 L 1202.855469 113.710938 C 1202.855469 114.304688 1203.183594 114.867188 1203.6875 115.167969 C 1206.691406 116.832031 1210.171875 116.890625 1213.292969 115.433594 C 1213.828125 115.195312 1214.125 114.511719 1214.125 113.976562 L 1214.125 91.167969 L 1218.289062 91.167969 L 1218.289062 113.769531 C 1218.289062 114.363281 1218.613281 114.929688 1219.121094 115.226562 C 1222.125 116.890625 1225.601562 116.949219 1228.726562 115.492188 C 1229.261719 115.253906 1229.558594 114.570312 1229.558594 114.035156 L 1229.558594 91.167969 L 1233.78125 91.167969 L 1233.78125 113.621094 C 1233.78125 114.214844 1234.105469 114.78125 1234.613281 115.078125 C 1237.617188 116.742188 1241.09375 116.800781 1244.21875 115.34375 C 1244.753906 115.105469 1245.050781 114.421875 1245.050781 113.886719 L 1245.050781 91.140625 L 1253.820312 91.140625 L 1253.820312 113.5 C 1253.820312 114.097656 1254.148438 114.660156 1254.65625 114.957031 C 1257.65625 116.625 1261.136719 116.683594 1264.257812 115.226562 C 1264.792969 114.988281 1265.089844 114.304688 1265.089844 113.769531 L 1265.089844 91.140625 L 1269.3125 91.140625 L 1269.3125 113.351562 C 1269.3125 113.945312 1269.640625 114.511719 1270.148438 114.808594 C 1273.148438 116.476562 1276.628906 116.535156 1279.75 115.078125 C 1280.285156 114.839844 1280.585938 114.15625 1280.585938 113.621094 L 1280.585938 91.109375 L 1284.746094 91.109375 L 1284.746094 113.382812 C 1284.746094 113.976562 1285.074219 114.542969 1285.578125 114.839844 C 1288.582031 116.503906 1292.0625 116.5625 1295.183594 115.105469 C 1295.71875 114.867188 1296.015625 114.183594 1296.015625 113.648438 L 1296.015625 91.082031 L 1300.238281 91.082031 L 1300.238281 113.203125 C 1300.238281 113.796875 1300.566406 114.363281 1301.070312 114.660156 C 1304.074219 116.324219 1307.554688 116.386719 1310.675781 114.929688 C 1311.210938 114.691406 1311.507812 114.007812 1311.507812 113.472656 L 1311.507812 91.050781 C 1312.519531 91.082031 1313.5625 91.140625 1314.570312 91.140625 Z M 1190.722656 112.789062 L 1190.722656 91.167969 L 1195.242188 91.167969 L 1195.242188 112.996094 C 1193.753906 113.441406 1192.179688 113.351562 1190.722656 112.789062 Z M 1206.246094 112.640625 L 1206.246094 91.167969 L 1210.765625 91.167969 L 1210.765625 112.847656 C 1209.277344 113.292969 1207.671875 113.203125 1206.246094 112.640625 Z M 1221.675781 112.699219 L 1221.675781 91.167969 L 1226.199219 91.167969 L 1226.199219 112.90625 C 1224.710938 113.351562 1223.105469 113.261719 1221.675781 112.699219 Z M 1237.171875 112.550781 L 1237.171875 91.167969 L 1241.691406 91.167969 L 1241.691406 112.757812 C 1240.203125 113.234375 1238.597656 113.144531 1237.171875 112.550781 Z M 1257.210938 112.460938 L 1257.210938 91.167969 L 1261.730469 91.167969 L 1261.730469 112.667969 C 1260.246094 113.113281 1258.640625 113.023438 1257.210938 112.460938 Z M 1272.703125 112.3125 L 1272.703125 91.167969 L 1277.222656 91.167969 L 1277.222656 112.519531 C 1275.738281 112.964844 1274.132812 112.875 1272.703125 112.3125 Z M 1288.136719 112.371094 L 1288.136719 91.167969 L 1292.65625 91.167969 L 1292.65625 112.578125 C 1291.171875 113.023438 1289.59375 112.9375 1288.136719 112.371094 Z M 1303.628906 91.167969 L 1308.148438 91.167969 L 1308.148438 112.429688 C 1306.664062 112.875 1305.085938 112.789062 1303.628906 112.222656 Z M 1199.703125 87.78125 C 1194.351562 87.78125 1188.96875 87.570312 1183.617188 87.78125 C 1183.554688 87.78125 1183.46875 87.78125 1183.378906 87.78125 C 1183.109375 87.78125 1182.871094 87.839844 1182.632812 87.957031 C 1183.257812 86.859375 1183.792969 85.726562 1184.269531 84.566406 C 1218.289062 84.480469 1252.277344 84.390625 1286.292969 84.300781 C 1295.628906 84.269531 1304.96875 84.242188 1314.304688 84.210938 C 1314.808594 85.429688 1315.40625 86.621094 1316.058594 87.78125 Z M 1184.894531 57.0625 C 1189.207031 59.859375 1194.203125 61.402344 1199.316406 61.464844 C 1200.503906 61.492188 1201.101562 60.363281 1200.953125 59.324219 C 1199.644531 50.9375 1193.132812 43.859375 1184.746094 42.226562 C 1183.40625 41.957031 1182.039062 41.808594 1180.671875 41.808594 C 1180.226562 41.808594 1179.78125 41.867188 1179.335938 41.867188 C 1179.246094 41.867188 1179.097656 41.839844 1178.976562 41.75 C 1178.710938 41.628906 1178.472656 41.480469 1178.203125 41.363281 C 1175.914062 40.292969 1173.535156 39.429688 1171.066406 38.894531 C 1168.273438 38.269531 1165.328125 37.972656 1162.445312 38.089844 C 1164.019531 37.734375 1165.625 37.496094 1167.261719 37.40625 C 1171.15625 37.140625 1175.082031 37.4375 1178.949219 38.003906 C 1182.398438 38.476562 1185.816406 39.074219 1189.117188 40.171875 C 1191.761719 41.035156 1194.230469 42.253906 1196.730469 43.445312 C 1200.03125 45.019531 1203.390625 46.507812 1206.839844 47.753906 C 1214.183594 50.460938 1221.855469 52.542969 1229.558594 53.910156 C 1246.535156 56.945312 1264.378906 56.410156 1281.058594 51.890625 C 1284.210938 51.027344 1287.273438 49.984375 1290.277344 48.738281 C 1295.453125 46.597656 1300.65625 44.515625 1305.890625 42.550781 C 1315.136719 39.132812 1324.503906 35.355469 1334.523438 36.097656 C 1340.144531 36.515625 1345.289062 38.179688 1349.125 41.808594 C 1343.800781 38.835938 1337.585938 37.585938 1331.34375 38.210938 C 1328.546875 38.507812 1325.8125 39.101562 1323.164062 40.082031 C 1322.09375 40.5 1321.023438 40.945312 1319.984375 41.453125 C 1319.777344 41.539062 1319.566406 41.660156 1319.390625 41.75 C 1319.359375 41.75 1319.328125 41.777344 1319.328125 41.777344 C 1318.617188 41.808594 1317.902344 41.6875 1317.1875 41.71875 C 1312.3125 41.867188 1307.644531 43.800781 1304.015625 47.070312 C 1300.566406 50.195312 1298.246094 54.625 1297.535156 59.203125 C 1297.355469 60.246094 1297.949219 61.375 1299.167969 61.34375 C 1304.285156 61.253906 1309.277344 59.738281 1313.589844 56.945312 C 1314.691406 56.230469 1315.703125 55.398438 1316.59375 54.476562 C 1315.195312 56.675781 1314.097656 59.085938 1313.324219 61.582031 C 1312.28125 64.914062 1311.746094 68.480469 1311.777344 72.019531 C 1295.421875 65.863281 1277.285156 64.914062 1260.363281 69.433594 C 1256.46875 70.472656 1252.691406 71.8125 1248.976562 73.359375 C 1233.898438 67.082031 1217.21875 64.257812 1201.070312 67.707031 C 1196.105469 68.777344 1191.289062 70.445312 1186.707031 72.613281 C 1186.828125 66.28125 1185.191406 59.828125 1181.800781 54.566406 C 1182.785156 55.515625 1183.792969 56.347656 1184.894531 57.0625 Z M 1180.703125 45.257812 C 1180.820312 45.257812 1180.96875 45.257812 1181.089844 45.257812 C 1185.28125 45.347656 1189.414062 47.042969 1192.449219 49.957031 C 1194.765625 52.15625 1196.34375 54.953125 1197.207031 58.015625 C 1189.769531 57.183594 1182.097656 52.871094 1180.703125 45.257812 Z M 1179.335938 51.203125 C 1177.492188 49.09375 1175.289062 47.28125 1172.761719 45.882812 C 1168.539062 43.53125 1163.78125 42.046875 1158.996094 41.867188 C 1162.207031 41.304688 1165.535156 41.390625 1168.75 41.925781 C 1171.066406 42.3125 1173.355469 42.96875 1175.5 43.890625 C 1176.09375 44.15625 1176.65625 44.425781 1177.253906 44.722656 C 1177.492188 47.070312 1178.203125 49.242188 1179.335938 51.203125 Z M 1321.320312 44.722656 C 1321.796875 44.453125 1322.304688 44.1875 1322.71875 43.980469 C 1324.890625 42.996094 1327.210938 42.3125 1329.558594 41.898438 C 1332.503906 41.363281 1335.535156 41.273438 1338.507812 41.6875 C 1333.898438 42.046875 1329.378906 43.621094 1325.394531 45.941406 C 1323.078125 47.28125 1321.023438 49.035156 1319.269531 51.027344 C 1320.371094 49.125 1321.054688 46.980469 1321.320312 44.722656 Z M 1319.152344 41.988281 C 1319.179688 41.957031 1319.300781 41.925781 1319.359375 41.867188 C 1319.242188 41.957031 1319.179688 41.988281 1319.152344 41.988281 Z M 1317.84375 45.226562 C 1316.445312 52.839844 1308.773438 57.121094 1301.371094 57.925781 C 1303.363281 51.085938 1309.191406 45.734375 1316.5625 45.226562 C 1316.980469 45.199219 1317.425781 45.199219 1317.84375 45.226562 Z M 1285.640625 77.699219 C 1294.558594 77.667969 1303.449219 77.640625 1312.371094 77.609375 C 1312.429688 77.96875 1312.519531 78.355469 1312.578125 78.710938 C 1312.726562 79.425781 1312.90625 80.136719 1313.113281 80.820312 C 1279.484375 80.910156 1245.851562 81 1212.222656 81.089844 C 1203.300781 81.117188 1194.410156 81.148438 1185.488281 81.148438 C 1185.785156 80.136719 1186.023438 79.125 1186.234375 78.117188 C 1186.234375 78.054688 1186.261719 77.996094 1186.261719 77.9375 C 1219.386719 77.90625 1252.511719 77.816406 1285.640625 77.699219 Z M 1190.78125 74.605469 C 1206.601562 68.003906 1224.207031 68.480469 1240.46875 73.804688 C 1241.125 74.011719 1241.75 74.21875 1242.402344 74.457031 C 1232.589844 74.488281 1222.777344 74.519531 1212.964844 74.546875 C 1205.5625 74.546875 1198.1875 74.578125 1190.78125 74.605469 Z M 1255.84375 74.398438 C 1256.972656 74.011719 1258.132812 73.65625 1259.292969 73.296875 C 1268.453125 70.621094 1278.054688 69.550781 1287.570312 70.207031 C 1294.5 70.683594 1301.339844 72.050781 1307.910156 74.25 C 1290.574219 74.308594 1273.210938 74.367188 1255.84375 74.398438 Z M 1377.613281 80.285156 C 1372.378906 91.855469 1361.820312 100.269531 1349.066406 101.636719 C 1341.898438 102.410156 1334.347656 101.011719 1328.398438 96.761719 C 1327.804688 96.34375 1327.746094 96.285156 1327 95.660156 C 1326.226562 95.003906 1325.457031 94.292969 1324.742188 93.578125 C 1322.75 91.617188 1320.996094 89.414062 1319.539062 87.035156 C 1313.414062 76.984375 1313.621094 62.652344 1321.558594 53.523438 C 1329.054688 44.902344 1343.296875 41.898438 1352.664062 49.152344 C 1357.6875 53.019531 1361.019531 58.699219 1360.988281 65.152344 C 1360.988281 71.453125 1358.460938 78.769531 1352.277344 81.476562 C 1345.765625 84.332031 1336.546875 81.296875 1333.574219 74.667969 C 1332.5625 72.40625 1332.234375 69.375 1333.128906 66.964844 C 1334.523438 63.277344 1338.894531 61.402344 1342.613281 62.148438 C 1346.328125 62.890625 1349.183594 66.074219 1349.570312 69.847656 C 1349.898438 72.910156 1348.5 75.765625 1346.179688 77.730469 C 1344.515625 79.125 1346.925781 81.503906 1348.558594 80.109375 C 1354.894531 74.753906 1354.179688 64.230469 1346.777344 60.125 C 1342.96875 58.015625 1338.09375 58.164062 1334.40625 60.453125 C 1330.597656 62.832031 1328.785156 67.113281 1329.292969 71.515625 C 1330.125 78.890625 1336.277344 84.332031 1343.445312 85.609375 C 1347.578125 86.351562 1351.949219 85.816406 1355.546875 83.558594 C 1358.789062 81.535156 1361.046875 78.355469 1362.503906 74.84375 C 1365.332031 67.855469 1364.972656 59.5625 1360.871094 53.167969 C 1359.890625 51.652344 1358.730469 50.222656 1357.449219 48.914062 C 1355.21875 42.609375 1350.730469 37.40625 1344.457031 34.910156 C 1335.296875 31.253906 1324.949219 32.589844 1315.820312 35.535156 C 1308.148438 38.03125 1300.535156 40.917969 1293.074219 44.007812 C 1289.714844 45.40625 1286.414062 46.804688 1282.933594 47.875 C 1268.007812 52.484375 1251.800781 53.523438 1236.335938 51.621094 C 1228.339844 50.640625 1220.488281 48.707031 1212.785156 46.296875 C 1208.59375 44.988281 1204.492188 43.445312 1200.507812 41.601562 C 1197.769531 40.320312 1195.0625 38.953125 1192.269531 37.824219 C 1185.667969 35.207031 1178.113281 34.136719 1171.039062 33.988281 C 1161.402344 33.808594 1151.917969 36.78125 1145.257812 43.980469 C 1144.039062 45.316406 1142.90625 46.746094 1141.898438 48.230469 C 1140.054688 49.957031 1138.449219 51.949219 1137.199219 54.058594 C 1133.304688 60.660156 1133.304688 68.988281 1136.367188 75.886719 C 1137.882812 79.304688 1140.378906 82.367188 1143.710938 84.152344 C 1147.398438 86.144531 1151.738281 86.5 1155.785156 85.578125 C 1162.921875 83.945312 1168.867188 78.292969 1169.253906 70.800781 C 1169.492188 66.429688 1167.320312 62.265625 1163.394531 60.214844 C 1159.46875 58.164062 1154.503906 58.28125 1150.816406 60.808594 C 1144.246094 65.359375 1143.828125 75.113281 1149.925781 80.257812 C 1151.589844 81.652344 1153.96875 79.273438 1152.304688 77.878906 C 1149.957031 75.886719 1148.527344 72.941406 1148.945312 69.820312 C 1149.449219 65.863281 1152.632812 62.5625 1156.617188 62.175781 C 1160.390625 61.789062 1164.464844 63.871094 1165.566406 67.679688 C 1166.28125 70.175781 1165.835938 73.210938 1164.613281 75.4375 C 1161.195312 81.773438 1151.976562 84.628906 1145.585938 81.296875 C 1139.695312 78.234375 1137.40625 70.949219 1137.554688 64.675781 C 1137.675781 59.324219 1140.203125 54.503906 1144.007812 50.90625 C 1144.128906 50.789062 1144.277344 50.667969 1144.394531 50.550781 C 1144.664062 50.3125 1144.898438 50.105469 1145.167969 49.867188 C 1145.496094 49.570312 1145.851562 49.300781 1146.207031 49.035156 C 1151.261719 45.316406 1157.597656 44.367188 1163.664062 45.882812 C 1169.015625 47.21875 1173.980469 49.957031 1177.492188 54.296875 C 1181.089844 58.757812 1182.933594 64.527344 1183.257812 70.207031 C 1183.617188 76.449219 1182.011719 82.488281 1178.648438 87.78125 C 1177.164062 90.097656 1175.410156 92.210938 1173.445312 94.113281 C 1172.734375 94.796875 1172.019531 95.453125 1171.246094 96.074219 C 1170.5625 96.640625 1170.652344 96.582031 1169.996094 97.058594 C 1158.222656 105.355469 1140.886719 102.824219 1130.449219 93.546875 C 1126.136719 89.710938 1122.65625 84.777344 1120.457031 79.425781 C 1117.1875 71.335938 1117.128906 62.445312 1119.507812 54.117188 C 1120.753906 49.808594 1122.539062 45.585938 1125.183594 41.898438 C 1129.4375 35.921875 1135.535156 31.402344 1142.253906 28.546875 C 1148.5 25.898438 1155.277344 24.5625 1162.058594 24.890625 C 1166.933594 25.125 1171.722656 26.109375 1176.480469 27.238281 C 1181.445312 28.425781 1186.410156 29.707031 1191.257812 31.3125 C 1198.128906 33.601562 1204.578125 36.871094 1211.359375 39.371094 C 1219.894531 42.550781 1228.933594 44.304688 1237.972656 45.109375 C 1254.417969 46.566406 1271.8125 44.839844 1287.335938 39.132812 C 1294.320312 36.546875 1300.953125 33.15625 1308.03125 30.835938 C 1312.816406 29.261719 1317.753906 28.039062 1322.660156 26.882812 C 1327.386719 25.75 1332.175781 24.828125 1337.023438 24.679688 C 1351 24.234375 1365.777344 30.777344 1373.714844 42.492188 C 1376.214844 46.148438 1377.910156 50.402344 1379.039062 54.625 C 1381.507812 63.097656 1381.269531 72.199219 1377.613281 80.285156 Z M 1377.613281 80.285156 " fill-opacity="1" fill-rule="nonzero"/></g><path fill="#ffffff" d="M 1317.785156 128.519531 C 1317.722656 128.636719 1317.632812 128.753906 1317.546875 128.84375 C 1317.605469 128.753906 1317.664062 128.667969 1317.722656 128.578125 C 1317.753906 128.546875 1317.753906 128.519531 1317.785156 128.519531 Z M 1317.785156 128.519531 " fill-opacity="1" fill-rule="nonzero"/><path fill="#ffffff" d="M 1317.785156 128.488281 C 1317.902344 128.28125 1317.960938 128.011719 1317.960938 127.714844 L 1317.960938 127.238281 C 1318.109375 127.625 1318.082031 128.042969 1317.785156 128.488281 Z M 1317.785156 128.488281 " fill-opacity="1" fill-rule="nonzero"/><path fill="#ffffff" d="M 1251.265625 145.617188 L 1250.96875 145.617188 C 1251.085938 145.585938 1251.175781 145.585938 1251.265625 145.617188 Z M 1251.265625 145.617188 " fill-opacity="1" fill-rule="nonzero"/><path fill="#ffffff" d="M 1127.535156 56.824219 C 1127.414062 56.972656 1127.296875 57.09375 1127.148438 57.183594 C 1127.265625 57.0625 1127.414062 56.945312 1127.535156 56.824219 Z M 1127.535156 56.824219 " fill-opacity="1" fill-rule="nonzero"/><path fill="#ffffff" d="M 1127.5625 56.824219 C 1127.773438 56.734375 1127.980469 56.585938 1128.1875 56.347656 C 1128.25 56.289062 1128.308594 56.230469 1128.367188 56.140625 C 1128.070312 56.347656 1127.800781 56.585938 1127.5625 56.824219 Z M 1127.5625 56.824219 " fill-opacity="1" fill-rule="nonzero"/><path fill="#ffffff" d="M 1146.476562 790.703125 C 1146.121094 790.820312 1145.703125 790.820312 1145.347656 790.703125 C 1145.40625 790.703125 1145.433594 790.703125 1145.496094 790.703125 C 1145.820312 790.703125 1146.148438 790.703125 1146.476562 790.703125 Z M 1146.476562 790.703125 " fill-opacity="1" fill-rule="nonzero"/></svg>