<svg xmlns="http://www.w3.org/2000/svg" xmlns:xlink="http://www.w3.org/1999/xlink" width="1920" zoomAndPan="magnify" viewBox="0 0 1440 809.999993" height="1080" preserveAspectRatio="xMidYMid meet" version="1.0"><defs><clipPath id="3b48ccdbd5"><path d="M 27.316406 0 L 298 0 L 298 810 L 27.316406 810 Z M 27.316406 0 " clip-rule="nonzero"/></clipPath></defs><g clip-path="url(#3b48ccdbd5)"><path fill="#ffffff" d="M 297.222656 63.097656 C 296.808594 56.199219 294.785156 49.332031 291.515625 43.265625 C 288.246094 37.199219 283.011719 32.144531 277.152344 28.546875 C 271.621094 25.125 265.199219 22.777344 258.777344 21.796875 C 258.0625 21.675781 257.320312 21.589844 256.605469 21.527344 C 256.574219 20.132812 256.574219 18.734375 256.546875 17.335938 C 256.546875 16.414062 256.515625 15.460938 256.515625 14.539062 C 256.515625 13.707031 256.25 12.429688 256.546875 11.6875 C 256.8125 10.972656 257.644531 10.199219 258.09375 9.605469 C 258.65625 8.859375 259.191406 8.117188 259.757812 7.375 C 260.917969 5.828125 262.078125 4.253906 263.238281 2.707031 C 264.039062 1.636719 262.9375 0.148438 261.78125 0.148438 C 235.878906 0.117188 209.949219 0.117188 184.050781 0.0898438 C 158.152344 0.0898438 132.222656 0.0585938 106.320312 0.03125 C 91.660156 0.03125 77.03125 0 62.402344 0 C 61.242188 0 60.140625 1.488281 60.945312 2.558594 C 62.132812 4.132812 63.324219 5.710938 64.511719 7.285156 C 65.046875 8 65.582031 8.710938 66.148438 9.425781 C 66.625 10.082031 67.515625 10.882812 67.8125 11.625 C 68.082031 12.28125 67.875 13.441406 67.875 14.152344 L 67.875 21.738281 C 67.011719 21.824219 66.148438 21.945312 65.285156 22.09375 C 52.382812 24.414062 39.566406 32.023438 33.351562 43.769531 C 30.050781 50.015625 28.058594 57.0625 27.761719 64.140625 C 27.433594 72.40625 29.722656 80.554688 34.210938 87.511719 C 38.582031 94.261719 44.738281 99.675781 52.261719 102.675781 C 59.25 105.472656 67.277344 106.246094 74.59375 104.519531 C 82.949219 102.558594 90.292969 96.910156 94.875 89.59375 L 94.875 127.238281 C 94.726562 127.625 94.753906 128.101562 95.109375 128.578125 C 98.085938 132.710938 101.089844 136.84375 104.0625 140.945312 C 105.519531 142.96875 107.003906 144.992188 108.460938 147.042969 C 108.609375 147.25 108.730469 147.429688 108.878906 147.609375 C 107.988281 225.011719 107.09375 302.382812 106.203125 379.785156 C 105.308594 456.949219 104.417969 534.113281 103.554688 611.304688 C 103.050781 654.691406 102.546875 698.074219 102.070312 741.460938 L 96.03125 741.460938 C 95.082031 741.460938 94.367188 742.230469 94.339844 743.152344 C 94.070312 749.964844 89.28125 755.554688 82.742188 757.25 C 82.117188 757.398438 81.761719 757.8125 81.609375 758.289062 C 81.550781 758.46875 81.492188 758.675781 81.492188 758.882812 L 81.492188 765.722656 C 81.046875 766.050781 80.601562 766.46875 80.183594 766.792969 C 79.46875 767.328125 78.726562 767.894531 78.011719 768.429688 C 76.914062 769.261719 74.652344 770.332031 74.386719 771.789062 C 74.058594 773.484375 74.355469 775.507812 74.355469 777.203125 L 74.355469 781.214844 C 71.53125 781.660156 69.121094 783.59375 68.46875 786.539062 C 67.574219 790.523438 70.222656 794.089844 73.96875 794.925781 L 73.96875 808.066406 C 73.96875 808.988281 74.742188 809.761719 75.664062 809.761719 L 227.226562 809.761719 C 234.214844 809.761719 241.261719 810 248.25 809.761719 C 248.339844 809.761719 248.457031 809.761719 248.546875 809.761719 C 249.082031 809.761719 249.46875 809.554688 249.738281 809.257812 C 250.035156 808.988281 250.242188 808.601562 250.242188 808.066406 L 250.242188 794.863281 C 252.679688 794.269531 254.703125 792.515625 255.417969 789.988281 C 256.277344 786.984375 254.96875 783.714844 252.324219 782.078125 C 251.90625 781.839844 251.492188 781.632812 251.074219 781.484375 C 251.074219 778.539062 251.132812 775.625 251.074219 772.679688 C 251.046875 770.957031 249.976562 770.480469 248.667969 769.5 C 247.238281 768.460938 245.839844 767.417969 244.414062 766.378906 C 244.207031 766.230469 243.996094 766.050781 243.789062 765.871094 L 243.789062 759.539062 C 244.207031 758.675781 243.96875 757.488281 242.777344 757.1875 C 236.265625 755.496094 231.480469 749.902344 231.183594 743.09375 C 231.152344 742.171875 230.4375 741.398438 229.488281 741.398438 L 224.609375 741.398438 C 223.628906 663.996094 222.648438 586.566406 221.636719 509.164062 C 220.65625 432.089844 219.675781 354.984375 218.691406 277.910156 C 218.128906 234.644531 217.59375 191.378906 217.027344 148.113281 C 217.5625 147.460938 217.980469 146.625 218.394531 146.0625 C 219.257812 144.871094 220.121094 143.652344 220.953125 142.464844 C 224.195312 137.914062 227.464844 133.363281 230.707031 128.816406 C 230.765625 128.726562 230.824219 128.636719 230.882812 128.546875 C 230.882812 128.519531 230.914062 128.488281 230.945312 128.488281 C 231.0625 128.28125 231.121094 128.011719 231.121094 127.714844 L 231.121094 90.753906 C 232.578125 92.804688 234.214844 94.738281 236.027344 96.460938 C 245.988281 106.007812 261.125 107.40625 273.554688 102.140625 C 288.71875 95.75 298.207031 79.335938 297.222656 63.097656 Z M 67.753906 6.035156 C 67.101562 5.175781 66.445312 4.28125 65.792969 3.417969 C 90.5625 3.417969 115.359375 3.449219 140.132812 3.480469 C 166.03125 3.480469 191.960938 3.507812 217.859375 3.539062 C 231.390625 3.539062 244.917969 3.566406 258.417969 3.566406 C 257.824219 4.339844 257.261719 5.144531 256.664062 5.917969 C 256.039062 6.71875 255.445312 7.554688 254.820312 8.355469 C 254.554688 8.710938 254.195312 9.097656 253.871094 9.515625 C 230.050781 9.515625 206.234375 9.515625 182.414062 9.515625 C 158.390625 9.515625 134.363281 9.515625 110.335938 9.515625 C 97.042969 9.515625 83.722656 9.515625 70.429688 9.515625 C 70.132812 9.128906 69.777344 8.773438 69.507812 8.414062 C 68.945312 7.613281 68.347656 6.808594 67.753906 6.035156 Z M 125.144531 30.121094 C 134.242188 30.210938 143.34375 28.546875 151.964844 25.660156 C 155.386719 24.53125 158.714844 23.195312 161.988281 21.707031 C 179.796875 29.410156 199.808594 31.015625 218.601562 25.871094 C 222.5 24.800781 226.304688 23.433594 230.023438 21.855469 C 230.320312 21.738281 230.527344 21.558594 230.675781 21.351562 C 237.128906 21.351562 243.609375 21.351562 250.0625 21.351562 C 242.363281 21.648438 234.75 23.609375 227.257812 25.601562 C 222.5 26.851562 217.800781 28.367188 213.25 30.242188 C 209.710938 31.667969 206.234375 33.304688 202.695312 34.730469 C 193.507812 38.449219 183.722656 40.617188 173.882812 41.601562 C 156.21875 43.324219 137.988281 41.453125 121.546875 34.554688 C 118.007812 33.066406 114.527344 31.460938 110.960938 30.0625 C 106.292969 28.25 101.535156 26.792969 96.6875 25.542969 C 88.332031 23.371094 79.828125 21.289062 71.234375 21.589844 L 71.234375 21.378906 C 78.636719 21.378906 86.011719 21.378906 93.417969 21.378906 C 93.503906 21.796875 93.742188 22.152344 94.25 22.421875 C 103.792969 27.355469 114.351562 30.003906 125.144531 30.121094 Z M 99.898438 21.351562 C 113.933594 21.351562 127.9375 21.351562 141.972656 21.351562 L 154.105469 21.351562 C 146.582031 24.144531 138.703125 26.046875 130.703125 26.582031 C 120.117188 27.296875 109.5625 25.542969 99.898438 21.351562 Z M 170.433594 21.351562 C 184.972656 21.351562 199.511719 21.351562 214.054688 21.351562 L 221.875 21.351562 C 207.066406 26.226562 190.980469 26.851562 175.84375 22.957031 C 174.03125 22.480469 172.214844 21.945312 170.433594 21.351562 Z M 182.503906 17.960938 C 158.476562 17.960938 134.453125 17.960938 110.425781 17.960938 C 97.371094 17.960938 84.289062 17.960938 71.234375 17.960938 L 71.234375 13.917969 C 71.234375 13.589844 71.261719 13.230469 71.292969 12.875 C 94.84375 12.875 118.363281 12.875 141.914062 12.875 C 165.941406 12.875 189.96875 12.875 213.996094 12.875 C 227.046875 12.875 240.074219 12.875 253.125 12.875 C 253.125 13.054688 253.15625 13.261719 253.15625 13.410156 C 253.15625 14.539062 253.1875 15.640625 253.1875 16.769531 C 253.1875 17.15625 253.1875 17.574219 253.1875 17.960938 C 229.636719 17.960938 206.085938 17.960938 182.503906 17.960938 Z M 108.105469 509.195312 C 108.996094 432.03125 109.890625 354.867188 110.753906 277.671875 C 111.257812 234.703125 111.734375 191.765625 112.238281 148.796875 C 113.191406 148.796875 114.140625 148.769531 115.0625 148.796875 C 120.921875 148.828125 126.808594 148.855469 132.667969 148.855469 C 131.925781 225.933594 131.152344 303.035156 130.40625 380.109375 C 129.664062 457.246094 128.890625 534.410156 128.148438 611.542969 C 127.730469 654.839844 127.316406 698.132812 126.867188 741.429688 L 105.429688 741.429688 C 106.320312 664.027344 107.214844 586.625 108.105469 509.195312 Z M 134.777344 278.058594 C 135.195312 235 135.609375 191.945312 136.027344 148.886719 C 139.269531 148.886719 142.511719 148.917969 145.75 148.917969 C 151.339844 148.945312 156.960938 148.976562 162.550781 148.976562 C 162.492188 225.933594 162.402344 302.886719 162.34375 379.8125 C 162.285156 456.949219 162.195312 534.082031 162.136719 611.21875 C 162.105469 654.632812 162.046875 698.015625 162.015625 741.429688 L 130.257812 741.429688 C 131.003906 664.117188 131.773438 586.804688 132.519531 509.460938 C 133.261719 432.355469 134.035156 355.222656 134.777344 278.058594 Z M 246.851562 806.34375 L 82.710938 806.34375 C 80.957031 806.34375 79.144531 806.195312 77.359375 806.253906 L 77.359375 795.222656 L 241.5 795.222656 C 243.253906 795.222656 245.066406 795.371094 246.851562 795.308594 Z M 251.730469 786.152344 C 253.273438 788.589844 251.433594 791.59375 248.667969 791.710938 L 79.144531 791.710938 C 76.765625 791.710938 73.316406 792.277344 72.035156 789.71875 C 70.726562 787.042969 72.839844 784.574219 75.484375 784.488281 C 75.546875 784.488281 75.574219 784.488281 75.632812 784.488281 C 75.960938 784.488281 76.289062 784.488281 76.617188 784.488281 C 77.152344 784.488281 77.6875 784.488281 78.191406 784.488281 L 228.148438 784.488281 C 234.957031 784.488281 241.796875 784.25 248.578125 784.488281 C 249.886719 784.488281 251.015625 785.023438 251.730469 786.152344 Z M 242.453125 769.144531 C 243.136719 769.648438 243.789062 770.125 244.472656 770.628906 C 245.542969 771.402344 246.585938 772.207031 247.65625 772.980469 L 247.65625 781.066406 L 99.035156 781.066406 C 91.929688 781.066406 84.851562 781.007812 77.746094 781.066406 L 77.746094 772.800781 C 78.546875 772.207031 79.351562 771.582031 80.152344 770.988281 C 80.660156 770.601562 81.164062 770.214844 81.671875 769.855469 C 82.175781 769.46875 82.890625 768.726562 83.484375 768.488281 C 84.4375 768.132812 86.160156 768.429688 87.203125 768.429688 C 88.71875 768.429688 90.203125 768.429688 91.691406 768.429688 C 97.402344 768.429688 103.140625 768.429688 108.847656 768.429688 C 120.296875 768.429688 131.714844 768.460938 143.164062 768.460938 C 166.03125 768.488281 188.925781 768.488281 211.792969 768.519531 C 218.277344 768.519531 224.730469 768.519531 231.210938 768.546875 C 234.394531 768.546875 237.574219 768.546875 240.785156 768.546875 C 241.589844 768.546875 241.828125 768.695312 242.453125 769.144531 Z M 235.582031 760.550781 C 237.128906 760.550781 238.792969 760.699219 240.371094 760.640625 L 240.371094 764.832031 L 89.667969 764.832031 C 88.125 764.832031 86.457031 764.683594 84.882812 764.742188 L 84.882812 760.578125 L 235.582031 760.578125 Z M 227.941406 744.820312 C 228.59375 749.785156 231.210938 754.1875 235.046875 757.160156 L 102.664062 757.160156 C 98.648438 757.160156 94.605469 757.070312 90.5625 757.070312 C 94.339844 754.097656 96.894531 749.753906 97.550781 744.847656 Z M 165.4375 741.460938 C 165.496094 664.027344 165.585938 586.625 165.644531 509.195312 C 165.703125 432.058594 165.792969 354.925781 165.851562 277.789062 C 165.882812 234.882812 165.941406 191.945312 165.972656 149.003906 C 174.683594 149.035156 183.425781 149.066406 192.140625 149.125 C 192.824219 226.082031 193.507812 303.035156 194.160156 379.992188 C 194.84375 457.125 195.527344 534.261719 196.183594 611.394531 C 196.570312 654.75 196.957031 698.105469 197.3125 741.488281 L 165.4375 741.488281 Z M 219.554688 611.1875 C 220.121094 654.601562 220.65625 698.015625 221.21875 741.429688 L 200.730469 741.429688 C 200.046875 664.058594 199.363281 586.683594 198.679688 509.28125 C 197.996094 432.148438 197.3125 355.015625 196.660156 277.878906 C 196.273438 234.941406 195.914062 192.003906 195.527344 149.066406 C 199.511719 149.09375 203.496094 149.09375 207.453125 149.125 C 208.96875 149.125 210.457031 149.125 211.972656 149.152344 C 212.476562 149.152344 213.074219 149.214844 213.695312 149.242188 C 214.679688 226.140625 215.660156 303.007812 216.640625 379.902344 C 217.59375 457.039062 218.574219 534.113281 219.554688 611.1875 Z M 214.46875 145.792969 C 197.789062 145.734375 181.136719 145.675781 164.453125 145.585938 L 164.15625 145.585938 C 164.15625 145.585938 164.15625 145.585938 164.128906 145.585938 L 164.066406 145.585938 C 153.929688 145.554688 143.757812 145.496094 133.617188 145.46875 C 126.214844 145.4375 118.808594 145.40625 111.375 145.378906 C 107.539062 140.054688 103.675781 134.730469 99.839844 129.378906 L 213.132812 129.378906 C 217.445312 129.378906 221.785156 129.527344 226.125 129.46875 C 222.230469 134.941406 218.367188 140.382812 214.46875 145.792969 Z M 227.761719 126.019531 L 101.980469 126.019531 C 100.789062 126.019531 99.511719 125.902344 98.261719 125.929688 L 98.261719 91.167969 L 100.554688 91.167969 L 100.554688 113.859375 C 100.554688 114.453125 100.878906 115.019531 101.386719 115.316406 C 104.390625 116.980469 107.867188 117.039062 110.988281 115.582031 C 111.523438 115.34375 111.824219 114.660156 111.824219 114.125 L 111.824219 91.167969 L 116.046875 91.167969 L 116.046875 113.710938 C 116.046875 114.304688 116.371094 114.867188 116.878906 115.167969 C 119.882812 116.832031 123.359375 116.890625 126.480469 115.433594 C 127.015625 115.195312 127.316406 114.511719 127.316406 113.976562 L 127.316406 91.167969 L 131.476562 91.167969 L 131.476562 113.769531 C 131.476562 114.363281 131.804688 114.929688 132.308594 115.226562 C 135.3125 116.890625 138.792969 116.949219 141.914062 115.492188 C 142.449219 115.253906 142.746094 114.570312 142.746094 114.035156 L 142.746094 91.167969 L 146.96875 91.167969 L 146.96875 113.621094 C 146.96875 114.214844 147.296875 114.78125 147.804688 115.078125 C 150.804688 116.742188 154.285156 116.800781 157.40625 115.34375 C 157.941406 115.105469 158.238281 114.421875 158.238281 113.886719 L 158.238281 91.140625 L 167.011719 91.140625 L 167.011719 113.5 C 167.011719 114.097656 167.339844 114.660156 167.84375 114.957031 C 170.847656 116.625 174.328125 116.683594 177.449219 115.226562 C 177.984375 114.988281 178.28125 114.304688 178.28125 113.769531 L 178.28125 91.140625 L 182.503906 91.140625 L 182.503906 113.351562 C 182.503906 113.945312 182.832031 114.511719 183.335938 114.808594 C 186.339844 116.476562 189.820312 116.535156 192.941406 115.078125 C 193.476562 114.839844 193.773438 114.15625 193.773438 113.621094 L 193.773438 91.109375 L 197.9375 91.109375 L 197.9375 113.382812 C 197.9375 113.976562 198.265625 114.542969 198.769531 114.839844 C 201.773438 116.503906 205.253906 116.5625 208.375 115.105469 C 208.910156 114.867188 209.207031 114.183594 209.207031 113.648438 L 209.207031 91.082031 L 213.429688 91.082031 L 213.429688 113.203125 C 213.429688 113.796875 213.757812 114.363281 214.261719 114.660156 C 217.265625 116.324219 220.746094 116.386719 223.867188 114.929688 C 224.402344 114.691406 224.699219 114.007812 224.699219 113.472656 L 224.699219 91.050781 C 225.710938 91.082031 226.75 91.140625 227.761719 91.140625 Z M 103.914062 112.789062 L 103.914062 91.167969 L 108.433594 91.167969 L 108.433594 112.996094 C 106.945312 113.441406 105.371094 113.351562 103.914062 112.789062 Z M 119.433594 112.640625 L 119.433594 91.167969 L 123.953125 91.167969 L 123.953125 112.847656 C 122.46875 113.292969 120.863281 113.203125 119.433594 112.640625 Z M 134.867188 112.699219 L 134.867188 91.167969 L 139.386719 91.167969 L 139.386719 112.90625 C 137.902344 113.351562 136.296875 113.261719 134.867188 112.699219 Z M 150.359375 112.550781 L 150.359375 91.167969 L 154.878906 91.167969 L 154.878906 112.757812 C 153.394531 113.234375 151.789062 113.144531 150.359375 112.550781 Z M 170.402344 112.460938 L 170.402344 91.167969 L 174.921875 91.167969 L 174.921875 112.667969 C 173.433594 113.113281 171.828125 113.023438 170.402344 112.460938 Z M 185.894531 112.3125 L 185.894531 91.167969 L 190.414062 91.167969 L 190.414062 112.519531 C 188.925781 112.964844 187.320312 112.875 185.894531 112.3125 Z M 201.328125 112.371094 L 201.328125 91.167969 L 205.847656 91.167969 L 205.847656 112.578125 C 204.359375 113.023438 202.785156 112.9375 201.328125 112.371094 Z M 216.820312 91.167969 L 221.339844 91.167969 L 221.339844 112.429688 C 219.851562 112.875 218.277344 112.789062 216.820312 112.222656 Z M 112.894531 87.78125 C 107.539062 87.78125 102.160156 87.570312 96.804688 87.78125 C 96.746094 87.78125 96.65625 87.78125 96.566406 87.78125 C 96.300781 87.78125 96.0625 87.839844 95.824219 87.957031 C 96.449219 86.859375 96.984375 85.726562 97.460938 84.566406 C 131.476562 84.480469 165.464844 84.390625 199.484375 84.300781 C 208.820312 84.269531 218.15625 84.242188 227.496094 84.210938 C 228 85.429688 228.59375 86.621094 229.25 87.78125 Z M 98.085938 57.0625 C 102.394531 59.859375 107.390625 61.402344 112.507812 61.464844 C 113.695312 61.492188 114.289062 60.363281 114.140625 59.324219 C 112.832031 50.9375 106.320312 43.859375 97.9375 42.226562 C 96.597656 41.957031 95.230469 41.808594 93.863281 41.808594 C 93.417969 41.808594 92.96875 41.867188 92.523438 41.867188 C 92.433594 41.867188 92.285156 41.839844 92.167969 41.75 C 91.898438 41.628906 91.660156 41.480469 91.394531 41.363281 C 89.105469 40.292969 86.726562 39.429688 84.257812 38.894531 C 81.460938 38.269531 78.519531 37.972656 75.632812 38.089844 C 77.210938 37.734375 78.816406 37.496094 80.453125 37.40625 C 84.347656 37.140625 88.273438 37.4375 92.136719 38.003906 C 95.585938 38.476562 99.007812 39.074219 102.308594 40.171875 C 104.953125 41.035156 107.421875 42.253906 109.917969 43.445312 C 113.21875 45.019531 116.582031 46.507812 120.03125 47.753906 C 127.375 50.460938 135.046875 52.542969 142.746094 53.910156 C 159.726562 56.945312 177.566406 56.410156 194.25 51.890625 C 197.402344 51.027344 200.464844 49.984375 203.46875 48.738281 C 208.640625 46.597656 213.847656 44.515625 219.078125 42.550781 C 228.328125 39.132812 237.695312 35.355469 247.714844 36.097656 C 253.335938 36.515625 258.480469 38.179688 262.316406 41.808594 C 256.992188 38.835938 250.777344 37.585938 244.53125 38.210938 C 241.738281 38.507812 239.003906 39.101562 236.355469 40.082031 C 235.285156 40.5 234.214844 40.945312 233.175781 41.453125 C 232.964844 41.539062 232.757812 41.660156 232.578125 41.75 C 232.550781 41.75 232.519531 41.777344 232.519531 41.777344 C 231.804688 41.808594 231.09375 41.6875 230.378906 41.71875 C 225.503906 41.867188 220.832031 43.800781 217.207031 47.070312 C 213.757812 50.195312 211.4375 54.625 210.722656 59.203125 C 210.546875 60.246094 211.140625 61.375 212.359375 61.34375 C 217.472656 61.253906 222.46875 59.738281 226.78125 56.945312 C 227.882812 56.230469 228.890625 55.398438 229.785156 54.476562 C 228.386719 56.675781 227.285156 59.085938 226.511719 61.582031 C 225.472656 64.914062 224.9375 68.480469 224.96875 72.019531 C 208.613281 65.863281 190.472656 64.914062 173.554688 69.433594 C 169.660156 70.472656 165.882812 71.8125 162.164062 73.359375 C 147.089844 67.082031 130.40625 64.257812 114.261719 67.707031 C 109.296875 68.777344 104.476562 70.445312 99.898438 72.613281 C 100.015625 66.28125 98.382812 59.828125 94.992188 54.566406 C 95.972656 55.515625 96.984375 56.347656 98.085938 57.0625 Z M 93.890625 45.257812 C 94.011719 45.257812 94.160156 45.257812 94.277344 45.257812 C 98.472656 45.347656 102.605469 47.042969 105.636719 49.957031 C 107.957031 52.15625 109.53125 54.953125 110.394531 58.015625 C 102.960938 57.183594 95.289062 52.871094 93.890625 45.257812 Z M 92.523438 51.203125 C 90.679688 49.09375 88.480469 47.28125 85.953125 45.882812 C 81.730469 43.53125 76.972656 42.046875 72.183594 41.867188 C 75.394531 41.304688 78.726562 41.390625 81.9375 41.925781 C 84.257812 42.3125 86.546875 42.96875 88.6875 43.890625 C 89.28125 44.15625 89.847656 44.425781 90.441406 44.722656 C 90.679688 47.070312 91.394531 49.242188 92.523438 51.203125 Z M 234.511719 44.722656 C 234.988281 44.453125 235.492188 44.1875 235.910156 43.980469 C 238.082031 42.996094 240.398438 42.3125 242.75 41.898438 C 245.691406 41.363281 248.726562 41.273438 251.699219 41.6875 C 247.089844 42.046875 242.570312 43.621094 238.585938 45.941406 C 236.265625 47.28125 234.214844 49.035156 232.460938 51.027344 C 233.558594 49.125 234.246094 46.980469 234.511719 44.722656 Z M 232.339844 41.988281 C 232.371094 41.957031 232.488281 41.925781 232.550781 41.867188 C 232.429688 41.957031 232.371094 41.988281 232.339844 41.988281 Z M 231.03125 45.226562 C 229.636719 52.839844 221.964844 57.121094 214.558594 57.925781 C 216.550781 51.085938 222.378906 45.734375 229.753906 45.226562 C 230.171875 45.199219 230.617188 45.199219 231.03125 45.226562 Z M 198.828125 77.699219 C 207.75 77.667969 216.640625 77.640625 225.5625 77.609375 C 225.621094 77.96875 225.710938 78.355469 225.769531 78.710938 C 225.917969 79.425781 226.097656 80.136719 226.304688 80.820312 C 192.675781 80.910156 159.042969 81 125.410156 81.089844 C 116.492188 81.117188 107.601562 81.148438 98.679688 81.148438 C 98.976562 80.136719 99.214844 79.125 99.421875 78.117188 C 99.421875 78.054688 99.453125 77.996094 99.453125 77.9375 C 132.578125 77.90625 165.703125 77.816406 198.828125 77.699219 Z M 103.972656 74.605469 C 119.792969 68.003906 137.394531 68.480469 153.660156 73.804688 C 154.316406 74.011719 154.9375 74.21875 155.59375 74.457031 C 145.78125 74.488281 135.96875 74.519531 126.15625 74.546875 C 118.75 74.546875 111.375 74.578125 103.972656 74.605469 Z M 169.035156 74.398438 C 170.164062 74.011719 171.324219 73.65625 172.484375 73.296875 C 181.640625 70.621094 191.246094 69.550781 200.761719 70.207031 C 207.691406 70.683594 214.53125 72.050781 221.101562 74.25 C 203.765625 74.308594 186.398438 74.367188 169.035156 74.398438 Z M 290.800781 80.285156 C 285.566406 91.855469 275.011719 100.269531 262.253906 101.636719 C 255.089844 102.410156 247.535156 101.011719 241.589844 96.761719 C 240.996094 96.34375 240.933594 96.285156 240.191406 95.660156 C 239.417969 95.003906 238.644531 94.292969 237.933594 93.578125 C 235.9375 91.617188 234.183594 89.414062 232.726562 87.035156 C 226.601562 76.984375 226.808594 62.652344 234.75 53.523438 C 242.242188 44.902344 256.488281 41.898438 265.851562 49.152344 C 270.878906 53.019531 274.210938 58.699219 274.179688 65.152344 C 274.179688 71.453125 271.652344 78.769531 265.46875 81.476562 C 258.953125 84.332031 249.738281 81.296875 246.761719 74.667969 C 245.753906 72.40625 245.425781 69.375 246.316406 66.964844 C 247.714844 63.277344 252.085938 61.402344 255.804688 62.148438 C 259.519531 62.890625 262.375 66.074219 262.761719 69.847656 C 263.089844 72.910156 261.691406 75.765625 259.371094 77.730469 C 257.707031 79.125 260.113281 81.503906 261.75 80.109375 C 268.082031 74.753906 267.371094 64.230469 259.964844 60.125 C 256.160156 58.015625 251.28125 58.164062 247.597656 60.453125 C 243.789062 62.832031 241.976562 67.113281 242.480469 71.515625 C 243.3125 78.890625 249.46875 84.332031 256.636719 85.609375 C 260.769531 86.351562 265.140625 85.816406 268.738281 83.558594 C 271.980469 81.535156 274.238281 78.355469 275.695312 74.84375 C 278.519531 67.855469 278.164062 59.5625 274.058594 53.167969 C 273.078125 51.652344 271.917969 50.222656 270.640625 48.914062 C 268.410156 42.609375 263.921875 37.40625 257.644531 34.910156 C 248.488281 31.253906 238.140625 32.589844 229.011719 35.535156 C 221.339844 38.03125 213.726562 40.917969 206.261719 44.007812 C 202.902344 45.40625 199.601562 46.804688 196.125 47.875 C 181.195312 52.484375 164.988281 53.523438 149.527344 51.621094 C 141.527344 50.640625 133.679688 48.707031 125.976562 46.296875 C 121.785156 44.988281 117.679688 43.445312 113.695312 41.601562 C 110.960938 40.320312 108.253906 38.953125 105.460938 37.824219 C 98.859375 35.207031 91.304688 34.136719 84.226562 33.988281 C 74.59375 33.808594 65.109375 36.78125 58.445312 43.980469 C 57.226562 45.316406 56.097656 46.746094 55.085938 48.230469 C 53.242188 49.957031 51.636719 51.949219 50.390625 54.058594 C 46.492188 60.660156 46.492188 68.988281 49.554688 75.886719 C 51.074219 79.304688 53.570312 82.367188 56.902344 84.152344 C 60.589844 86.144531 64.929688 86.5 68.972656 85.578125 C 76.109375 83.945312 82.058594 78.292969 82.445312 70.800781 C 82.683594 66.429688 80.511719 62.265625 76.585938 60.214844 C 72.660156 58.164062 67.695312 58.28125 64.007812 60.808594 C 57.4375 65.359375 57.019531 75.113281 63.117188 80.257812 C 64.78125 81.652344 67.160156 79.273438 65.496094 77.878906 C 63.144531 75.886719 61.71875 72.941406 62.132812 69.820312 C 62.640625 65.863281 65.820312 62.5625 69.804688 62.175781 C 73.582031 61.789062 77.65625 63.871094 78.757812 67.679688 C 79.46875 70.175781 79.023438 73.210938 77.804688 75.4375 C 74.386719 81.773438 65.167969 84.628906 58.773438 81.296875 C 52.886719 78.234375 50.597656 70.949219 50.746094 64.675781 C 50.863281 59.324219 53.390625 54.503906 57.199219 50.90625 C 57.316406 50.789062 57.464844 50.667969 57.585938 50.550781 C 57.851562 50.3125 58.089844 50.105469 58.359375 49.867188 C 58.683594 49.570312 59.042969 49.300781 59.398438 49.035156 C 64.453125 45.316406 70.789062 44.367188 76.851562 45.882812 C 82.207031 47.21875 87.171875 49.957031 90.679688 54.296875 C 94.277344 58.757812 96.121094 64.527344 96.449219 70.207031 C 96.804688 76.449219 95.199219 82.488281 91.839844 87.78125 C 90.351562 90.097656 88.597656 92.210938 86.636719 94.113281 C 85.921875 94.796875 85.210938 95.453125 84.4375 96.074219 C 83.753906 96.640625 83.839844 96.582031 83.1875 97.058594 C 71.410156 105.355469 54.074219 102.824219 43.640625 93.546875 C 39.328125 89.710938 35.847656 84.777344 33.648438 79.425781 C 30.375 71.335938 30.316406 62.445312 32.695312 54.117188 C 33.945312 49.808594 35.730469 45.585938 38.375 41.898438 C 42.628906 35.921875 48.722656 31.402344 55.445312 28.546875 C 61.6875 25.898438 68.46875 24.5625 75.246094 24.890625 C 80.125 25.125 84.910156 26.109375 89.667969 27.238281 C 94.636719 28.425781 99.601562 29.707031 104.449219 31.3125 C 111.316406 33.601562 117.769531 36.871094 124.550781 39.371094 C 133.082031 42.550781 142.125 44.304688 151.164062 45.109375 C 167.605469 46.566406 185.003906 44.839844 200.523438 39.132812 C 207.511719 36.546875 214.144531 33.15625 221.21875 30.835938 C 226.007812 29.261719 230.945312 28.039062 235.851562 26.882812 C 240.578125 25.75 245.367188 24.828125 250.210938 24.679688 C 264.1875 24.234375 278.96875 30.777344 286.90625 42.492188 C 289.402344 46.148438 291.097656 50.402344 292.230469 54.625 C 294.695312 63.097656 294.460938 72.199219 290.800781 80.285156 Z M 290.800781 80.285156 " fill-opacity="1" fill-rule="nonzero"/></g><path fill="#ffffff" d="M 230.972656 128.519531 C 230.914062 128.636719 230.824219 128.753906 230.734375 128.84375 C 230.796875 128.753906 230.855469 128.667969 230.914062 128.578125 C 230.945312 128.546875 230.945312 128.519531 230.972656 128.519531 Z M 230.972656 128.519531 " fill-opacity="1" fill-rule="nonzero"/><path fill="#ffffff" d="M 230.972656 128.488281 C 231.09375 128.28125 231.152344 128.011719 231.152344 127.714844 L 231.152344 127.238281 C 231.300781 127.625 231.269531 128.042969 230.972656 128.488281 Z M 230.972656 128.488281 " fill-opacity="1" fill-rule="nonzero"/><path fill="#ffffff" d="M 164.453125 145.617188 L 164.15625 145.617188 C 164.277344 145.585938 164.367188 145.585938 164.453125 145.617188 Z M 164.453125 145.617188 " fill-opacity="1" fill-rule="nonzero"/><path fill="#ffffff" d="M 40.726562 56.824219 C 40.605469 56.972656 40.488281 57.09375 40.339844 57.183594 C 40.457031 57.0625 40.605469 56.945312 40.726562 56.824219 Z M 40.726562 56.824219 " fill-opacity="1" fill-rule="nonzero"/><path fill="#ffffff" d="M 40.753906 56.824219 C 40.960938 56.734375 41.171875 56.585938 41.378906 56.347656 C 41.4375 56.289062 41.496094 56.230469 41.558594 56.140625 C 41.261719 56.347656 40.992188 56.585938 40.753906 56.824219 Z M 40.753906 56.824219 " fill-opacity="1" fill-rule="nonzero"/><path fill="#ffffff" d="M 59.667969 790.703125 C 59.308594 790.820312 58.894531 790.820312 58.535156 790.703125 C 58.597656 790.703125 58.625 790.703125 58.683594 790.703125 C 59.011719 790.703125 59.339844 790.703125 59.667969 790.703125 Z M 59.667969 790.703125 " fill-opacity="1" fill-rule="nonzero"/></svg>