<svg xmlns="http://www.w3.org/2000/svg" xmlns:xlink="http://www.w3.org/1999/xlink" width="200" zoomAndPan="magnify" viewBox="0 0 150 60" height="80" preserveAspectRatio="xMidYMid meet" version="1.0"><defs><g/><clipPath id="535415a089"><path d="M 23 8 L 127 8 L 127 53.886719 L 23 53.886719 Z M 23 8 " clip-rule="nonzero"/></clipPath><clipPath id="a421fdd380"><path d="M 1.179688 6 L 148.929688 6 L 148.929688 11 L 1.179688 11 Z M 1.179688 6 " clip-rule="nonzero"/></clipPath></defs><g clip-path="url(#535415a089)"><path fill="#ffffff" d="M 125.132812 20.253906 C 122.796875 19.34375 120.582031 18.195312 118.527344 16.8125 C 119.398438 14.554688 120.226562 12.339844 121.097656 10.085938 C 121.175781 10.007812 121.257812 9.929688 121.257812 9.808594 C 122.679688 9.808594 124.144531 9.808594 125.566406 9.808594 C 126.238281 9.808594 126.238281 8.742188 125.566406 8.742188 C 119.238281 8.742188 112.871094 8.742188 106.542969 8.742188 C 100.210938 8.742188 93.84375 8.742188 87.515625 8.742188 C 85.578125 8.742188 83.675781 8.742188 81.738281 8.742188 C 81.265625 8.664062 80.789062 8.664062 80.316406 8.742188 C 79.128906 8.742188 77.980469 8.742188 76.792969 8.742188 C 76.121094 8.742188 76.121094 9.808594 76.792969 9.808594 C 77.308594 9.808594 77.824219 9.808594 78.335938 9.808594 C 77.386719 10.757812 76.914062 12.144531 76.992188 13.449219 C 77.070312 15.109375 77.902344 16.691406 79.246094 17.679688 C 80.59375 18.671875 82.371094 18.945312 83.953125 18.472656 C 87.554688 17.445312 89.453125 13.726562 93.050781 12.65625 C 94.515625 12.222656 96.058594 12.222656 97.484375 12.578125 C 96.808594 12.617188 96.136719 12.738281 95.464844 13.011719 C 94.160156 13.566406 93.050781 14.636719 92.816406 16.097656 C 92.617188 17.402344 93.132812 18.867188 94.398438 19.460938 C 95.542969 20.015625 97.085938 19.777344 97.757812 18.628906 C 98.15625 17.996094 98.195312 17.085938 97.679688 16.535156 C 97.207031 15.980469 96.375 15.820312 95.742188 16.21875 C 95.1875 16.574219 95.703125 17.484375 96.257812 17.128906 C 96.730469 16.8125 97.085938 17.402344 96.96875 17.839844 C 96.808594 18.355469 96.335938 18.671875 95.820312 18.710938 C 94.675781 18.828125 93.84375 17.878906 93.804688 16.769531 C 93.804688 15.546875 94.632812 14.554688 95.742188 14.082031 C 97.085938 13.488281 98.589844 13.644531 99.976562 14.003906 C 100.09375 14.042969 100.210938 14.003906 100.292969 13.960938 C 101.242188 14.636719 102.070312 15.546875 102.703125 16.613281 C 103.019531 17.207031 103.929688 16.652344 103.613281 16.097656 C 102.230469 13.6875 99.816406 11.945312 97.085938 11.472656 C 95.625 11.234375 94.082031 11.3125 92.65625 11.746094 C 91.152344 12.183594 89.886719 13.054688 88.703125 14.042969 C 86.527344 15.902344 84.035156 18.550781 80.867188 17.445312 C 78.179688 16.453125 76.914062 12.578125 79.167969 10.523438 C 79.523438 10.203125 79.960938 9.96875 80.433594 9.886719 C 80.828125 9.886719 81.226562 9.886719 81.582031 9.886719 C 82.175781 10.046875 82.6875 10.402344 82.964844 11.074219 C 83.203125 11.667969 83.125 12.5 82.492188 12.855469 C 82.214844 13.011719 81.859375 12.972656 81.621094 12.738281 C 81.34375 12.460938 81.382812 12.023438 81.621094 11.746094 C 82.015625 11.195312 81.105469 10.679688 80.710938 11.234375 C 79.683594 12.695312 81.304688 14.675781 82.925781 13.882812 C 84.390625 13.171875 84.390625 11.195312 83.480469 10.046875 C 83.480469 10.046875 83.441406 10.007812 83.441406 10.007812 C 87.554688 10.007812 91.667969 10.007812 95.742188 10.007812 C 102.070312 10.007812 108.441406 10.007812 114.769531 10.007812 C 116.351562 10.007812 117.933594 10.007812 119.515625 10.007812 C 115.363281 12.816406 110.574219 14.554688 105.589844 15.070312 C 105.234375 14.953125 104.761719 15.230469 104.878906 15.703125 C 105.117188 16.691406 105.355469 17.722656 105.589844 18.710938 C 105.355469 18.75 105.117188 18.828125 104.878906 18.867188 C 102.386719 19.34375 99.894531 19.738281 97.402344 20.09375 C 92.183594 20.804688 86.882812 21.320312 81.582031 21.519531 C 79.40625 21.597656 77.191406 21.636719 75.015625 21.480469 C 74.976562 21.480469 74.894531 21.4375 74.816406 21.480469 C 74.738281 21.480469 74.699219 21.480469 74.621094 21.480469 C 72.71875 21.636719 70.820312 21.597656 68.921875 21.558594 C 66.390625 21.480469 63.898438 21.320312 61.367188 21.121094 C 56.105469 20.6875 50.847656 20.015625 45.625 19.027344 C 45.109375 18.90625 44.554688 18.828125 44.042969 18.710938 C 44.28125 17.722656 44.515625 16.691406 44.753906 15.703125 C 44.871094 15.230469 44.398438 14.953125 44.042969 15.070312 C 39.058594 14.554688 34.273438 12.816406 30.117188 10.007812 C 34.46875 10.007812 38.859375 10.007812 43.210938 10.007812 C 49.539062 10.007812 55.910156 10.007812 62.238281 10.007812 C 63.582031 10.007812 64.886719 10.007812 66.234375 10.007812 C 65.402344 11.035156 65.164062 12.617188 66.3125 13.605469 C 66.945312 14.199219 67.894531 14.238281 68.605469 13.726562 C 69.359375 13.132812 69.515625 12.0625 68.960938 11.273438 C 68.566406 10.71875 67.65625 11.234375 68.054688 11.789062 C 68.410156 12.339844 68.09375 13.171875 67.339844 13.011719 C 66.785156 12.855469 66.511719 12.144531 66.589844 11.628906 C 66.707031 10.71875 67.378906 10.164062 68.171875 10.007812 C 68.566406 10.007812 68.921875 10.007812 69.320312 10.007812 C 69.4375 10.046875 69.554688 10.046875 69.636719 10.085938 C 70.980469 10.601562 71.691406 12.105469 71.691406 13.488281 C 71.691406 14.914062 70.941406 16.335938 69.714844 17.085938 C 68.488281 17.878906 67.023438 17.996094 65.679688 17.523438 C 64.214844 17.007812 62.988281 15.941406 61.84375 14.914062 C 60.695312 13.882812 59.507812 12.894531 58.125 12.261719 C 56.738281 11.667969 55.195312 11.351562 53.695312 11.472656 C 50.53125 11.667969 47.640625 13.488281 46.097656 16.257812 C 45.742188 16.851562 46.652344 17.363281 47.007812 16.769531 C 47.601562 15.703125 48.433594 14.792969 49.421875 14.121094 C 49.5 14.160156 49.621094 14.160156 49.777344 14.160156 C 51.164062 13.804688 52.664062 13.644531 54.011719 14.238281 C 55.078125 14.714844 55.949219 15.703125 55.949219 16.929688 C 55.949219 18.039062 55.117188 18.988281 53.929688 18.867188 C 53.417969 18.828125 52.941406 18.511719 52.785156 17.996094 C 52.664062 17.5625 53.019531 16.96875 53.496094 17.285156 C 54.050781 17.640625 54.605469 16.730469 54.011719 16.375 C 53.457031 16.019531 52.785156 16.097656 52.269531 16.496094 C 51.753906 16.929688 51.558594 17.601562 51.753906 18.273438 C 52.152344 19.621094 53.65625 20.171875 54.921875 19.816406 C 56.265625 19.421875 57.015625 18.15625 56.976562 16.8125 C 56.9375 15.386719 56.066406 14.160156 54.800781 13.488281 C 53.972656 13.054688 53.101562 12.855469 52.191406 12.816406 C 53.21875 12.539062 54.289062 12.460938 55.394531 12.617188 C 57.253906 12.855469 58.835938 13.765625 60.261719 14.953125 C 61.644531 16.097656 62.910156 17.445312 64.570312 18.234375 C 66.113281 18.988281 67.855469 19.183594 69.4375 18.511719 C 70.980469 17.878906 72.128906 16.535156 72.5625 14.914062 C 72.996094 13.289062 72.679688 11.511719 71.574219 10.203125 C 71.496094 10.125 71.453125 10.085938 71.375 10.007812 C 71.890625 10.007812 72.402344 10.007812 72.917969 10.007812 C 73.589844 10.007812 73.589844 8.9375 72.917969 8.9375 C 71.769531 8.9375 70.585938 8.9375 69.4375 8.9375 C 68.921875 8.820312 68.410156 8.820312 67.933594 8.9375 C 63.265625 8.9375 58.597656 8.9375 53.929688 8.9375 C 47.601562 8.9375 41.234375 8.9375 34.90625 8.9375 C 31.34375 8.9375 27.785156 8.9375 24.222656 8.9375 C 23.550781 8.9375 23.550781 10.007812 24.222656 10.007812 C 25.648438 10.007812 27.074219 10.007812 28.535156 10.007812 C 28.574219 10.085938 28.613281 10.203125 28.695312 10.285156 C 29.566406 12.539062 30.394531 14.753906 31.265625 17.007812 C 29.207031 18.394531 26.992188 19.539062 24.660156 20.449219 C 24.5 20.527344 24.382812 20.648438 24.34375 20.765625 C 24.183594 20.964844 24.144531 21.203125 24.421875 21.398438 C 27.863281 24.167969 31.9375 26.144531 36.289062 27.054688 C 36.011719 28.164062 35.734375 29.269531 35.457031 30.378906 C 35.417969 30.578125 35.457031 30.734375 35.539062 30.8125 C 35.578125 31.011719 35.65625 31.167969 35.894531 31.25 C 36.683594 31.488281 37.4375 31.683594 38.226562 31.882812 C 37.910156 31.960938 37.671875 32.277344 37.910156 32.632812 C 39.136719 34.292969 40.640625 35.679688 42.378906 36.746094 C 44.121094 37.777344 46.296875 38.765625 48.355469 38.644531 C 48.710938 38.644531 49.105469 38.566406 49.460938 38.449219 C 49.5 38.449219 49.539062 38.449219 49.578125 38.449219 C 53.417969 37.539062 57.769531 36.628906 61.488281 38.566406 C 63.027344 39.359375 64.492188 40.703125 64.886719 42.445312 C 65.085938 43.273438 64.929688 44.261719 64.375 44.933594 C 63.859375 45.570312 62.988281 45.925781 62.238281 45.6875 C 61.488281 45.488281 60.855469 44.539062 61.171875 43.75 C 61.445312 43.078125 62.355469 42.839844 62.910156 43.234375 C 63.464844 43.628906 63.976562 42.71875 63.425781 42.324219 C 62.632812 41.769531 61.566406 41.929688 60.8125 42.484375 C 60.0625 43.078125 59.824219 44.105469 60.140625 45.015625 C 60.972656 47.269531 63.898438 47.230469 65.203125 45.488281 C 66.667969 43.550781 65.796875 40.980469 64.296875 39.359375 C 62.710938 37.695312 60.496094 36.785156 58.242188 36.46875 C 56.027344 36.152344 53.773438 36.429688 51.558594 36.867188 C 51.835938 36.390625 51.992188 35.835938 51.953125 35.203125 C 51.914062 34.847656 51.835938 34.492188 51.675781 34.175781 C 56.304688 34.769531 60.933594 35.246094 65.601562 35.480469 C 65.640625 35.5625 65.71875 35.640625 65.835938 35.71875 C 68.566406 37.144531 69.910156 40.347656 69.003906 43.273438 C 68.527344 44.816406 67.460938 46.160156 67.539062 47.863281 C 67.578125 49.328125 68.566406 50.472656 69.792969 51.226562 C 71.296875 52.175781 73.195312 52.492188 74.421875 53.835938 C 74.539062 53.953125 74.660156 53.992188 74.777344 53.992188 C 74.894531 53.992188 75.054688 53.953125 75.171875 53.835938 C 77.109375 51.738281 81.34375 51.777344 81.976562 48.496094 C 82.292969 46.835938 81.382812 45.410156 80.789062 43.90625 C 80.15625 42.402344 80.117188 40.78125 80.632812 39.238281 C 81.144531 37.734375 82.292969 36.46875 83.71875 35.757812 C 83.835938 35.71875 83.875 35.640625 83.914062 35.5625 C 85.773438 35.441406 87.59375 35.285156 89.453125 35.125 C 92.261719 34.886719 95.070312 34.570312 97.839844 34.214844 C 97.757812 34.335938 97.71875 34.453125 97.679688 34.609375 C 97.402344 35.441406 97.5625 36.273438 97.996094 36.90625 C 93.804688 36.074219 89.253906 35.878906 85.851562 38.804688 C 84.152344 40.269531 82.964844 42.640625 83.914062 44.816406 C 84.785156 46.792969 87.671875 47.625 89.058594 45.6875 C 89.691406 44.816406 89.730469 43.550781 88.976562 42.71875 C 88.265625 41.96875 87 41.730469 86.128906 42.324219 C 85.578125 42.71875 86.089844 43.628906 86.644531 43.234375 C 87.160156 42.878906 87.910156 43.035156 88.304688 43.550781 C 88.742188 44.144531 88.425781 45.015625 87.871094 45.410156 C 87.199219 45.925781 86.25 45.765625 85.617188 45.332031 C 84.941406 44.816406 84.625 43.945312 84.625 43.117188 C 84.625 41.335938 86.050781 39.792969 87.476562 38.882812 C 89.019531 37.933594 90.835938 37.5 92.617188 37.417969 C 95.109375 37.300781 97.5625 37.855469 99.976562 38.410156 C 100.132812 38.449219 100.25 38.488281 100.410156 38.527344 C 102.507812 38.960938 104.761719 38.050781 106.582031 37.0625 C 108.597656 35.996094 110.300781 34.453125 111.683594 32.632812 C 111.921875 32.277344 111.683594 31.960938 111.367188 31.882812 C 112.15625 31.683594 112.949219 31.484375 113.742188 31.25 C 113.976562 31.167969 114.097656 31.011719 114.097656 30.8125 C 114.175781 30.695312 114.253906 30.535156 114.175781 30.378906 C 113.898438 29.269531 113.621094 28.164062 113.34375 27.054688 C 117.695312 26.144531 121.769531 24.167969 125.210938 21.398438 C 125.449219 21.203125 125.410156 20.925781 125.289062 20.765625 C 125.371094 20.449219 125.289062 20.332031 125.132812 20.253906 Z M 25.925781 20.964844 C 28.179688 20.015625 30.355469 18.867188 32.375 17.484375 C 32.648438 17.285156 32.648438 16.929688 32.492188 16.691406 C 31.78125 14.832031 31.066406 13.011719 30.355469 11.15625 C 34.390625 13.726562 38.980469 15.347656 43.726562 15.902344 C 43.527344 16.691406 43.332031 17.523438 43.132812 18.3125 C 41.945312 18.039062 40.757812 17.761719 39.574219 17.363281 C 39.414062 17.207031 39.175781 17.128906 38.9375 17.207031 C 38.621094 17.246094 38.464844 17.601562 38.582031 17.917969 C 37.949219 20.570312 37.277344 23.179688 36.644531 25.828125 C 32.808594 25.039062 29.128906 23.335938 25.925781 20.964844 Z M 49.5 37.222656 C 49.460938 37.222656 49.421875 37.261719 49.382812 37.261719 C 48.550781 37.5 47.601562 37.378906 46.8125 37.183594 C 45.347656 36.828125 43.964844 36.152344 42.695312 35.324219 C 41.3125 34.414062 40.046875 33.226562 39.058594 31.882812 C 39.019531 31.84375 39.019531 31.84375 38.980469 31.804688 C 41.945312 32.515625 44.953125 32.988281 47.996094 33.425781 C 47.324219 34.019531 46.929688 35.007812 47.246094 35.878906 C 47.601562 36.785156 48.789062 37.300781 49.621094 36.707031 C 50.171875 36.3125 49.660156 35.402344 49.105469 35.796875 C 48.589844 36.152344 48.117188 35.519531 48.195312 35.007812 C 48.3125 34.335938 48.988281 33.859375 49.621094 33.742188 C 51.003906 33.542969 51.558594 35.164062 50.886719 36.152344 C 50.570312 36.628906 50.132812 36.945312 49.621094 37.144531 C 49.539062 37.222656 49.539062 37.222656 49.5 37.222656 Z M 80.828125 36.90625 C 80.828125 36.90625 80.789062 36.945312 80.789062 36.945312 C 80.277344 37.417969 79.722656 37.816406 79.089844 38.171875 C 78.496094 38.488281 77.742188 38.84375 77.070312 38.566406 C 76.675781 38.410156 76.519531 37.972656 76.597656 37.617188 C 76.597656 37.617188 76.597656 37.617188 76.597656 37.65625 C 76.835938 38.210938 77.386719 38.566406 77.980469 38.367188 C 78.574219 38.171875 78.890625 37.460938 78.695312 36.867188 C 78.496094 36.234375 77.863281 35.878906 77.230469 35.917969 C 76.558594 35.957031 75.925781 36.429688 75.648438 37.023438 C 75.015625 38.410156 76.203125 39.753906 77.625 39.753906 C 78.335938 39.753906 79.050781 39.476562 79.722656 39.082031 C 79.40625 40.070312 79.328125 41.097656 79.445312 42.128906 C 79.523438 42.917969 79.761719 43.667969 80.078125 44.421875 C 80.394531 45.171875 80.828125 45.925781 81.027344 46.714844 C 81.226562 47.46875 81.226562 48.257812 80.789062 48.929688 C 80.433594 49.523438 79.839844 49.960938 79.246094 50.316406 C 77.824219 51.144531 76.203125 51.5 74.9375 52.609375 C 73.867188 51.660156 72.445312 51.226562 71.179688 50.59375 C 69.871094 49.960938 68.605469 48.929688 68.765625 47.308594 C 68.921875 45.6875 70.070312 44.34375 70.386719 42.71875 C 70.625 41.492188 70.542969 40.226562 70.1875 39.082031 C 70.820312 39.4375 71.535156 39.714844 72.207031 39.753906 C 73.667969 39.832031 74.855469 38.449219 74.222656 37.023438 C 73.710938 35.835938 71.769531 35.363281 71.21875 36.785156 C 70.980469 37.378906 71.257812 38.09375 71.851562 38.328125 C 72.484375 38.566406 73.078125 38.210938 73.3125 37.65625 C 73.3125 37.65625 73.3125 37.65625 73.3125 37.617188 C 73.394531 37.972656 73.195312 38.410156 72.839844 38.566406 C 72.207031 38.84375 71.453125 38.527344 70.902344 38.210938 C 70.269531 37.855469 69.675781 37.460938 69.160156 36.945312 C 68.765625 36.390625 68.289062 35.878906 67.738281 35.441406 C 70.148438 35.5625 72.5625 35.601562 74.9375 35.480469 C 77.308594 35.601562 79.722656 35.601562 82.09375 35.480469 C 81.660156 35.878906 81.183594 36.351562 80.828125 36.90625 Z M 77.109375 36.945312 C 77.269531 36.867188 77.46875 36.867188 77.625 36.984375 C 77.703125 37.0625 77.742188 37.144531 77.703125 37.261719 C 77.703125 37.261719 77.625 37.339844 77.625 37.339844 C 77.507812 37.101562 77.347656 36.945312 77.109375 36.945312 Z M 72.839844 36.945312 C 72.601562 36.945312 72.445312 37.101562 72.363281 37.339844 C 72.363281 37.339844 72.207031 37.183594 72.324219 37.023438 C 72.445312 36.867188 72.640625 36.867188 72.839844 36.945312 Z M 82.410156 34.375 C 80 34.492188 77.546875 34.53125 75.09375 34.414062 C 75.054688 34.414062 75.015625 34.414062 74.976562 34.414062 C 74.9375 34.414062 74.894531 34.414062 74.855469 34.414062 C 70.03125 34.691406 65.164062 34.292969 60.378906 33.859375 C 54.761719 33.34375 49.144531 32.671875 43.605469 31.683594 C 41.3125 31.25 38.980469 30.8125 36.722656 30.140625 C 37.671875 26.226562 38.664062 22.347656 39.613281 18.433594 C 40.796875 18.789062 42.023438 19.105469 43.25 19.382812 C 43.410156 19.5 43.566406 19.539062 43.726562 19.5 C 44.042969 19.578125 44.359375 19.621094 44.675781 19.699219 C 47.167969 20.210938 49.699219 20.609375 52.191406 20.925781 C 57.492188 21.636719 62.832031 22.191406 68.171875 22.386719 C 70.425781 22.46875 72.71875 22.507812 74.976562 22.308594 C 76.914062 22.46875 78.890625 22.46875 80.828125 22.386719 C 83.359375 22.308594 85.894531 22.152344 88.425781 21.914062 C 93.765625 21.4375 99.066406 20.804688 104.324219 19.816406 C 104.957031 19.699219 105.550781 19.578125 106.183594 19.460938 C 106.34375 19.5 106.542969 19.460938 106.660156 19.34375 C 107.886719 19.066406 109.113281 18.789062 110.300781 18.394531 C 111.25 22.308594 112.238281 26.1875 113.1875 30.101562 C 108.636719 31.40625 103.890625 32.121094 99.183594 32.753906 C 93.644531 33.542969 88.027344 34.097656 82.410156 34.375 Z M 110.933594 31.921875 C 109.191406 34.292969 106.660156 36.113281 103.851562 36.984375 C 102.863281 37.300781 101.636719 37.539062 100.609375 37.261719 C 100.566406 37.222656 100.527344 37.222656 100.488281 37.222656 C 100.449219 37.222656 100.410156 37.222656 100.410156 37.183594 C 100.09375 37.0625 99.777344 36.867188 99.5 36.628906 C 99.027344 36.195312 98.789062 35.640625 98.867188 35.007812 C 98.945312 34.414062 99.34375 33.898438 99.933594 33.78125 C 100.648438 33.660156 101.476562 34.097656 101.753906 34.808594 C 101.875 35.085938 101.914062 35.441406 101.675781 35.71875 C 101.476562 35.957031 101.160156 36.035156 100.925781 35.835938 C 100.371094 35.441406 99.816406 36.351562 100.410156 36.746094 C 101.121094 37.261719 102.148438 36.90625 102.625 36.234375 C 103.179688 35.402344 102.863281 34.335938 102.230469 33.660156 C 102.191406 33.582031 102.109375 33.542969 102.03125 33.464844 C 103.574219 33.226562 105.117188 32.988281 106.660156 32.710938 C 108.125 32.4375 109.585938 32.160156 111.050781 31.84375 C 111.011719 31.84375 110.972656 31.882812 110.933594 31.921875 Z M 111.328125 17.957031 C 111.40625 17.679688 111.25 17.285156 110.972656 17.246094 C 110.773438 17.167969 110.496094 17.246094 110.378906 17.402344 C 109.191406 17.761719 108.003906 18.078125 106.816406 18.355469 C 106.621094 17.5625 106.421875 16.730469 106.226562 15.941406 C 110.972656 15.386719 115.597656 13.765625 119.59375 11.195312 C 118.882812 13.054688 118.171875 14.871094 117.457031 16.730469 C 117.300781 16.96875 117.300781 17.324219 117.578125 17.523438 C 119.59375 18.90625 121.769531 20.054688 124.023438 21.003906 C 120.859375 23.417969 117.140625 25.078125 113.265625 25.910156 C 112.59375 23.21875 111.960938 20.570312 111.328125 17.957031 Z M 111.328125 17.957031 " fill-opacity="1" fill-rule="nonzero"/></g><path fill="#ffffff" d="M 142.894531 11.789062 C 136.011719 11.789062 129.167969 11.789062 122.285156 11.789062 C 122.164062 11.707031 121.96875 11.667969 121.808594 11.789062 C 121.492188 11.789062 121.214844 11.789062 120.898438 11.789062 C 120.265625 11.789062 120.226562 12.65625 120.742188 12.816406 C 120.265625 13.566406 120.109375 14.476562 120.347656 15.347656 C 120.742188 16.730469 122.085938 17.679688 123.550781 17.640625 C 125.210938 17.5625 126.675781 16.496094 128.296875 16.179688 C 129.839844 15.863281 131.777344 15.820312 133.164062 16.691406 C 133.835938 17.085938 134.390625 17.800781 134.429688 18.589844 C 134.429688 19.34375 133.992188 20.054688 133.28125 20.371094 C 133.003906 20.488281 132.847656 20.726562 132.925781 21.003906 C 133.003906 21.242188 133.320312 21.480469 133.558594 21.359375 C 134.902344 20.804688 135.695312 19.421875 135.378906 17.996094 C 135.0625 16.496094 133.636719 15.503906 132.214844 15.148438 C 130.589844 14.753906 128.851562 14.832031 127.269531 15.308594 C 125.84375 15.742188 124.023438 17.085938 122.523438 16.335938 C 121.097656 15.625 120.980469 13.726562 122.164062 12.816406 C 129.089844 12.816406 136.011719 12.816406 142.933594 12.816406 C 143.566406 12.816406 143.566406 11.789062 142.894531 11.789062 Z M 142.894531 11.789062 " fill-opacity="1" fill-rule="nonzero"/><path fill="#ffffff" d="M 29.445312 15.78125 C 29.921875 14.792969 29.800781 13.6875 29.207031 12.777344 C 29.722656 12.617188 29.683594 11.746094 29.050781 11.746094 C 28.734375 11.746094 28.457031 11.746094 28.140625 11.746094 C 27.980469 11.628906 27.785156 11.667969 27.664062 11.746094 C 20.78125 11.746094 13.941406 11.746094 7.058594 11.746094 C 6.382812 11.746094 6.382812 12.816406 7.058594 12.816406 C 13.980469 12.816406 20.902344 12.816406 27.824219 12.816406 C 28.851562 13.605469 28.933594 15.1875 27.863281 16.058594 C 26.519531 17.167969 24.699219 16.019531 23.355469 15.503906 C 20.703125 14.476562 16.035156 14.28125 14.691406 17.445312 C 14.019531 18.988281 14.851562 20.6875 16.351562 21.320312 C 16.984375 21.597656 17.261719 20.570312 16.628906 20.292969 C 16.035156 20.054688 15.601562 19.460938 15.523438 18.828125 C 15.402344 18.117188 15.800781 17.402344 16.3125 16.96875 C 17.5 15.902344 19.476562 15.820312 20.980469 16.019531 C 21.8125 16.136719 22.640625 16.375 23.394531 16.691406 C 24.144531 17.007812 24.9375 17.363281 25.765625 17.523438 C 27.308594 17.800781 28.773438 17.207031 29.445312 15.78125 Z M 29.445312 15.78125 " fill-opacity="1" fill-rule="nonzero"/><g clip-path="url(#a421fdd380)"><path fill="#ffffff" d="M 148.273438 9.808594 L 128.929688 9.808594 L 131.421875 6.25 L 18.527344 6.25 L 21.019531 9.808594 L 1.675781 9.808594 C 1.402344 9.808594 1.203125 10.007812 1.203125 10.285156 C 1.203125 10.5625 1.402344 10.757812 1.675781 10.757812 L 22.878906 10.757812 L 20.386719 7.199219 L 129.601562 7.199219 L 127.109375 10.757812 L 148.3125 10.757812 C 148.589844 10.757812 148.789062 10.5625 148.789062 10.285156 C 148.746094 10.007812 148.550781 9.808594 148.273438 9.808594 Z M 148.273438 9.808594 " fill-opacity="1" fill-rule="nonzero"/></g><g fill="#ffffff" fill-opacity="1"><g transform="translate(42.788077, 27.168366)"><g><path d="M 6.265625 -3.765625 L 6.046875 -2.796875 L 4.078125 -3.234375 L 3.203125 0.703125 L 2.21875 0.484375 L 3.09375 -3.453125 L 1.125 -3.890625 L 1.34375 -4.859375 Z M 6.265625 -3.765625 "/></g></g></g><g fill="#ffffff" fill-opacity="1"><g transform="translate(50.052689, 28.724411)"><g><path d="M 6.03125 -4.109375 L 5.875 -3.125 L 1.90625 -3.78125 L 1.734375 -2.765625 L 5.703125 -2.109375 L 5.546875 -1.125 L 1.578125 -1.78125 L 1.40625 -0.78125 L 5.375 -0.125 L 5.21875 0.859375 L 1.25 0.203125 C 1.0625 0.171875 0.898438 0.0976562 0.765625 -0.015625 C 0.628906 -0.128906 0.53125 -0.265625 0.46875 -0.421875 C 0.40625 -0.585938 0.382812 -0.757812 0.40625 -0.9375 L 0.90625 -3.9375 C 0.9375 -4.113281 1.007812 -4.269531 1.125 -4.40625 C 1.238281 -4.550781 1.375 -4.65625 1.53125 -4.71875 C 1.695312 -4.78125 1.875 -4.796875 2.0625 -4.765625 Z M 6.03125 -4.109375 "/></g></g></g><g fill="#ffffff" fill-opacity="1"><g transform="translate(57.391248, 29.882573)"><g><path d="M 5.265625 0.578125 L 1.265625 0.140625 C 1.078125 0.117188 0.910156 0.0546875 0.765625 -0.046875 C 0.617188 -0.148438 0.507812 -0.285156 0.4375 -0.453125 C 0.363281 -0.617188 0.335938 -0.789062 0.359375 -0.96875 L 0.6875 -3.96875 C 0.707031 -4.15625 0.769531 -4.316406 0.875 -4.453125 C 0.976562 -4.597656 1.113281 -4.707031 1.28125 -4.78125 C 1.445312 -4.851562 1.625 -4.878906 1.8125 -4.859375 L 5.8125 -4.421875 L 5.703125 -3.421875 L 1.703125 -3.859375 L 1.375 -0.859375 L 5.375 -0.421875 Z M 5.265625 0.578125 "/></g></g></g><g fill="#ffffff" fill-opacity="1"><g transform="translate(64.781989, 30.639412)"><g><path d="M 4.453125 -2.78125 L 4.5625 -4.796875 L 5.5625 -4.75 L 5.28125 0.28125 L 4.28125 0.234375 L 4.390625 -1.78125 L 1.375 -1.953125 L 1.265625 0.0625 L 0.25 0.015625 L 0.53125 -5.015625 L 1.546875 -4.96875 L 1.4375 -2.953125 Z M 4.453125 -2.78125 "/></g></g></g><g fill="#ffffff" fill-opacity="1"><g transform="translate(72.202972, 30.992686)"><g><path d="M 5.296875 -5.03125 L 5.296875 -4.03125 L 1.265625 -4.03125 L 1.265625 -3.015625 L 4.28125 -3.015625 C 4.46875 -3.015625 4.632812 -2.96875 4.78125 -2.875 C 4.9375 -2.789062 5.0625 -2.671875 5.15625 -2.515625 C 5.25 -2.367188 5.296875 -2.203125 5.296875 -2.015625 L 5.296875 -1 C 5.296875 -0.820312 5.25 -0.65625 5.15625 -0.5 C 5.0625 -0.34375 4.9375 -0.21875 4.78125 -0.125 C 4.632812 -0.0390625 4.46875 0 4.28125 0 L 0.25 0 L 0.25 -1 L 4.28125 -1 L 4.28125 -2.015625 L 1.265625 -2.015625 C 1.078125 -2.015625 0.90625 -2.054688 0.75 -2.140625 C 0.59375 -2.234375 0.46875 -2.359375 0.375 -2.515625 C 0.289062 -2.671875 0.25 -2.835938 0.25 -3.015625 L 0.25 -4.03125 C 0.25 -4.21875 0.289062 -4.382812 0.375 -4.53125 C 0.46875 -4.6875 0.59375 -4.804688 0.75 -4.890625 C 0.90625 -4.984375 1.078125 -5.03125 1.265625 -5.03125 Z M 5.296875 -5.03125 "/></g></g></g><g fill="#ffffff" fill-opacity="1"><g transform="translate(79.63219, 30.941342)"><g><path d="M 0.984375 -5.09375 L 4 -5.265625 C 4.1875 -5.273438 4.359375 -5.238281 4.515625 -5.15625 C 4.671875 -5.070312 4.796875 -4.957031 4.890625 -4.8125 C 4.992188 -4.664062 5.050781 -4.5 5.0625 -4.3125 L 5.28125 -0.28125 L 4.28125 -0.234375 L 4.171875 -2.25 L 1.15625 -2.078125 L 1.265625 -0.0625 L 0.25 -0.015625 L 0.03125 -4.046875 C 0.0195312 -4.234375 0.0507812 -4.40625 0.125 -4.5625 C 0.207031 -4.71875 0.320312 -4.84375 0.46875 -4.9375 C 0.625 -5.03125 0.796875 -5.082031 0.984375 -5.09375 Z M 1.046875 -4.09375 L 1.09375 -3.078125 L 4.109375 -3.25 L 4.0625 -4.265625 Z M 1.046875 -4.09375 "/></g></g></g><g fill="#ffffff" fill-opacity="1"><g transform="translate(87.047583, 30.485536)"><g><path d="M 4.828125 -4.578125 L 4.9375 -3.578125 C 4.945312 -3.441406 4.90625 -3.316406 4.8125 -3.203125 C 4.726562 -3.097656 4.613281 -3.035156 4.46875 -3.015625 C 4.613281 -3.035156 4.742188 -3 4.859375 -2.90625 C 4.972656 -2.820312 5.035156 -2.710938 5.046875 -2.578125 L 5.15625 -1.578125 C 5.175781 -1.398438 5.144531 -1.226562 5.0625 -1.0625 C 4.988281 -0.90625 4.878906 -0.769531 4.734375 -0.65625 C 4.597656 -0.550781 4.4375 -0.488281 4.25 -0.46875 L 0.25 -0.03125 L -0.296875 -5.03125 L 3.703125 -5.46875 C 3.890625 -5.488281 4.0625 -5.460938 4.21875 -5.390625 C 4.382812 -5.316406 4.519531 -5.207031 4.625 -5.0625 C 4.738281 -4.925781 4.804688 -4.765625 4.828125 -4.578125 Z M 3.8125 -4.46875 L 0.828125 -4.140625 L 0.9375 -3.140625 L 3.921875 -3.46875 Z M 1.15625 -1.140625 L 4.140625 -1.46875 L 4.03125 -2.46875 L 1.046875 -2.140625 Z M 1.15625 -1.140625 "/></g></g></g><g fill="#ffffff" fill-opacity="1"><g transform="translate(94.427159, 29.626618)"><g><path d="M 3.734375 -3.671875 L 3.40625 -5.671875 L 4.40625 -5.828125 L 5.21875 -0.859375 L 4.21875 -0.703125 L 3.890625 -2.6875 L 0.921875 -2.1875 L 1.25 -0.203125 L 0.25 -0.046875 L -0.5625 -5.015625 L 0.4375 -5.171875 L 0.765625 -3.171875 Z M 3.734375 -3.671875 "/></g></g></g><g fill="#ffffff" fill-opacity="1"><g transform="translate(101.749013, 28.367138)"><g><path d="M 0.140625 -5.1875 L 3.09375 -5.828125 C 3.269531 -5.867188 3.441406 -5.863281 3.609375 -5.8125 C 3.773438 -5.757812 3.921875 -5.664062 4.046875 -5.53125 C 4.171875 -5.40625 4.253906 -5.253906 4.296875 -5.078125 L 5.171875 -1.140625 L 4.1875 -0.921875 L 3.75 -2.890625 L 0.796875 -2.25 L 1.234375 -0.28125 L 0.25 -0.046875 L -0.625 -3.984375 C -0.664062 -4.160156 -0.660156 -4.332031 -0.609375 -4.5 C -0.554688 -4.675781 -0.460938 -4.820312 -0.328125 -4.9375 C -0.191406 -5.0625 -0.0351562 -5.144531 0.140625 -5.1875 Z M 0.359375 -4.21875 L 0.578125 -3.21875 L 3.53125 -3.859375 L 3.3125 -4.859375 Z M 0.359375 -4.21875 "/></g></g></g></svg>